<svg enable-background="new 0 0 549.9 477" viewBox="0 0 549.9 477" xmlns="http://www.w3.org/2000/svg" xmlns:xlink="http://www.w3.org/1999/xlink"><clipPath id="a"><path d="m9.7 308.6 196.8-90.8c18-8.3 29.6-26.4 29.6-46.3v-154.8c0-9.2 7.5-16.7 16.7-16.7 2.4 0 4.8.5 7 1.5l271.2 125.3c11.5 5.3 18.8 16.8 18.8 29.4v160.2c0 19.9-11.6 37.9-29.6 46.3l-208.2 96.1c-13.5 6.3-29.1 6.3-42.7 0l-259.6-119.8c-8.4-3.8-12.1-13.7-8.2-22.1 1.6-3.7 4.6-6.6 8.2-8.3z"/></clipPath><clipPath id="b"><path d="m485.8 179.4c-1.9-50.8-42.5-111.6-92.3-138.5-26.4-14.2-51.4-17.3-70.4-8.5s-29.5 28.1-29.5 54.4c0 53 43.1 117.7 96.1 144.3 4.6 2.3 8.3.4 8.3-4.1s-3.7-10.2-8.3-12.5c-43.8-22-79.4-75.5-79.4-119.3 0-21.8 8.6-37.8 24.3-45s36.3-4.7 58.2 7.1c41.2 22.2 74.7 72.5 76.2 114.5.6 14.8-2.8 27.5-9.8 36.6-3.2 4.2-8.9 2.2-13.1-.9s-8.8-9-8.8-15.7v-32.7c0-26.3-21.4-58.4-47.7-71.7s-47.7-2.5-47.7 23.7 21.4 58.4 47.7 71.7c11.9 6 22.9 7.1 31.2 4 1.3 12.3 9.4 25.9 21 34.7 12.7 9.6 25.5 10.6 31.8 2.3 8.8-11.2 12.9-26.5 12.2-44.4zm-96-13.4c-17.1-8.6-31-29.5-31-46.6s13.9-24 31-15.4 31 29.5 31 46.6-13.9 24-31 15.4z"/></clipPath><linearGradient id="c" gradientTransform="matrix(1 0 0 -1 0 478)" gradientUnits="userSpaceOnUse" x1="290.665" x2="290.665" y1="151.04" y2="397.52"><stop offset="0" stop-color="#00d6c9"/><stop offset="1" stop-color="#218fff"/></linearGradient><linearGradient id="d" gradientTransform="matrix(1 0 0 -1 0 478)" gradientUnits="userSpaceOnUse" x1="313.4926" x2="278.4926" y1="297.572" y2="199.072"><stop offset="0" stop-color="#231f20" stop-opacity=".5"/><stop offset="1" stop-color="#231f20" stop-opacity="0"/></linearGradient><linearGradient id="e"><stop offset="0"/><stop offset=".99" stop-opacity=".1"/></linearGradient><linearGradient id="f" gradientTransform="matrix(1 0 0 -1 0 478)" gradientUnits="userSpaceOnUse" x1="402.77" x2="416.67" xlink:href="#e" y1="73.325" y2="73.325"/><linearGradient id="g" gradientTransform="matrix(1 0 0 -1 0 478)" gradientUnits="userSpaceOnUse" x1="408.86" x2="422.77" xlink:href="#e" y1="70.51" y2="70.51"/><linearGradient id="h" gradientTransform="matrix(1 0 0 -1 0 478)" gradientUnits="userSpaceOnUse" x1="414.95" x2="428.8501" xlink:href="#e" y1="67.695" y2="67.695"/><linearGradient id="i" gradientTransform="matrix(1 0 0 -1 0 478)" gradientUnits="userSpaceOnUse" x1="421.0414" x2="434.9514" xlink:href="#e" y1="64.925" y2="64.925"/><linearGradient id="j" gradientTransform="matrix(1 0 0 -1 0 478)" gradientUnits="userSpaceOnUse" x1="427.1199" x2="441.0072" xlink:href="#e" y1="62.045" y2="62.045"/><linearGradient id="k" gradientTransform="matrix(1 0 0 -1 0 478)" gradientUnits="userSpaceOnUse" x1="433.21" x2="447.11" xlink:href="#e" y1="59.32" y2="59.32"/><linearGradient id="l" gradientTransform="matrix(1 0 0 -1 0 478)" gradientUnits="userSpaceOnUse" x1="439.29" x2="453.2002" xlink:href="#e" y1="56.49" y2="56.49"/><linearGradient id="m" gradientTransform="matrix(1 0 0 -1 0 478)" gradientUnits="userSpaceOnUse" x1="445.3799" x2="459.2801" xlink:href="#e" y1="53.665" y2="53.665"/><linearGradient id="n" gradientTransform="matrix(1 0 0 -1 0 478)" gradientUnits="userSpaceOnUse" x1="451.46" x2="465.37" xlink:href="#e" y1="50.855" y2="50.855"/><path d="m9.7 308.6 196.8-90.8c18-8.3 29.6-26.4 29.6-46.3v-154.8c0-9.2 7.5-16.7 16.7-16.7 2.4 0 4.8.5 7 1.5l271.2 125.3c11.5 5.3 18.8 16.8 18.8 29.4v160.2c0 19.9-11.6 37.9-29.6 46.3l-208.2 96.1c-13.5 6.3-29.1 6.3-42.7 0l-259.6-119.8c-8.4-3.8-12.1-13.7-8.2-22.1 1.6-3.7 4.6-6.6 8.2-8.3z" opacity=".2"/><g clip-path="url(#a)"><path d="m514.1 168.1c-1.9-50.8-42.4-111.6-92.3-138.6-26.4-14.2-51.4-17.3-70.4-8.5s-29.4 28-29.4 54.4c0 53 43.1 117.7 96.1 144.3 4.6 2.3 8.3.5 8.3-4.1s-3.7-10.2-8.3-12.5c-43.8-22-79.4-75.5-79.4-119.3 0-21.8 8.6-37.8 24.3-45s36.3-4.7 58.2 7.1c41.2 22.2 74.7 72.5 76.2 114.5.6 14.8-2.8 27.5-9.8 36.6-3.2 4.2-8.9 2.2-13.1-1s-8.8-9-8.8-15.7v-32.7c0-26.3-21.4-58.5-47.7-71.7s-47.7-2.6-47.7 23.8 21.4 58.5 47.7 71.7c11.9 6 22.9 7.1 31.2 4 1.3 12.3 9.4 25.9 21 34.7 12.7 9.7 25.5 10.6 31.8 2.3 8.6-11.1 12.8-26.4 12.1-44.3zm-96-13.4c-17.1-8.6-31-29.5-31-46.6s13.9-24 31-15.4 31 29.5 31 46.6-13.9 24-31 15.4z" opacity=".2"/></g><path d="m485.8 179.4c-1.9-50.8-42.5-111.6-92.3-138.5-26.4-14.2-51.4-17.3-70.4-8.5s-29.5 28.1-29.5 54.4c0 53 43.1 117.7 96.1 144.3 4.6 2.3 8.3.4 8.3-4.1s-3.7-10.2-8.3-12.5c-43.8-22-79.4-75.5-79.4-119.3 0-21.8 8.6-37.8 24.3-45s36.3-4.7 58.2 7.1c41.2 22.2 74.7 72.5 76.2 114.5.6 14.8-2.8 27.5-9.8 36.6-3.2 4.2-8.9 2.2-13.1-.9s-8.8-9-8.8-15.7v-32.7c0-26.3-21.4-58.4-47.7-71.7s-47.7-2.5-47.7 23.7 21.4 58.4 47.7 71.7c11.9 6 22.9 7.1 31.2 4 1.3 12.3 9.4 25.9 21 34.7 12.7 9.6 25.5 10.6 31.8 2.3 8.8-11.2 12.9-26.5 12.2-44.4zm-96-13.4c-17.1-8.6-31-29.5-31-46.6s13.9-24 31-15.4 31 29.5 31 46.6-13.9 24-31 15.4z" fill="#00b7e7"/><g clip-path="url(#b)"><path d="m277 36.3v145.8l218.3 100.7v-145.7z" opacity=".1"/></g><path d="m113.3 212.7 68.2 31.5-34.6 16c-4 1.8-8.6 1.8-12.6 0l-55.3-25.5c-1.7-.8-2.4-2.8-1.6-4.5.3-.7.9-1.3 1.6-1.6z" fill="#be8800"/><path d="m113.3 212.7 6.6 19.8c1.3 3.8 4.7 6.6 8.8 6.9l52.9 4.8" fill="#ad7c00"/><path d="m113.3 200.1 68.2 31.5-34.6 16c-4 1.8-8.6 1.8-12.6 0l-55.3-25.5c-1.7-.8-2.4-2.8-1.7-4.5.3-.7.9-1.3 1.7-1.7z" fill="#db9d00"/><path d="m113.3 200.1 6.6 19.8c1.3 3.8 4.7 6.6 8.8 6.9l52.9 4.8" fill="#be8800"/><path d="m113.3 187.5 68.2 31.5-34.7 16c-4 1.8-8.6 1.8-12.6 0l-55.2-25.5c-1.7-.8-2.4-2.8-1.7-4.5.3-.7.9-1.3 1.7-1.7z" fill="#e9a700"/><path d="m113.3 187.5 6.6 19.8c1.3 3.9 4.7 6.6 8.8 6.9l52.9 4.8" fill="#db9d00"/><path d="m113.3 174.9 68.2 31.5-34.6 16c-4 1.8-8.6 1.8-12.6 0l-55.3-25.5c-1.7-.8-2.4-2.8-1.7-4.5.3-.7.9-1.3 1.7-1.7z" fill="#ffb700"/><path d="m113.3 174.9 6.6 19.8c1.3 3.9 4.7 6.6 8.8 6.9l52.9 4.8" fill="#db9d00"/><path d="m297.5 345.5-68.2-31.5v2.6l68.2 31.4 47.7-28.2v-2.6z" fill="#cac9ca"/><path d="m229.3 314 61.4-22 54.5 25.2-47.7 28.3z" fill="#dcdbdb"/><path d="m345.2 317.2-14.4 8.5-58.6-27.1 18.5-6.6z" fill="#c2c1c1"/><path d="m403.5 179.5-3.7 1.7-218.3-100.7 3.6-1.7z" fill="#dcdbdb"/><path d="m403.5 179.5-3.7 1.7v163.7l3.7-1.7z" fill="#cac9ca"/><path d="m399.8 344.9v-17.9l-218.3-100.8v18z" fill="#e5e4e4"/><path d="m181.5 80.5v145.7l218.3 100.8v-145.8z" fill="url(#c)"/><path d="m381.5 249.9c-4.8-4.9-6.3-12.1-9.8-18.1-5-8.6-13.6-14.3-21.9-19.7-4.6-3-10-6.1-15.3-4.9-4.4 1-7.5 4.8-11.1 7.5s-9 4.4-12.3 1.4c-2.1-1.9-2.5-5-2.5-7.8-.1-10.3 2.9-22.2-4.2-29.7-4.6-4.9-12-5.8-17.8-9.2-8.1-4.7-12.9-13.8-21.1-18.4-1-.6-2.1-1-3.3-1.1-2.5-.1-4.6 1.8-5.7 4s-1.7 4.6-2.7 6.9c-3.6 7.7-12.8 11-20.4 7.4-2.1-1-4-2.5-5.5-4.4-2-2.5-3.1-5.5-5-8s-5-4.6-8.1-3.8c-4.6 1.2-7.6 8.3-12.1 6.6-3.5-1.3-5.1-7.6-8.5-6-.9.6-1.6 1.4-2.1 2.3-1.6 2.5-3.8 4.5-6.5 5.8-1.3.6-2.7 1.2-4.1 1.6v64l218.3 100.7v-66.3c-1.3-.9-2.6-1.7-4-2.4-4.9-2.5-10.4-4.4-14.3-8.4z" fill="url(#d)"/><path d="m184.9 110.8v108.5c0 1.2.7 2.4 1.9 2.9l186.6 86.1c.9.4 2 0 2.4-.9.1-.2.2-.5.2-.8v-108.5c0-1.2-.7-2.4-1.9-2.9l-186.6-86.1c-.9-.4-2 0-2.4.9-.2.3-.2.6-.2.8z" opacity=".1"/><path d="m167.9 114.8v108.5c0 1.2.7 2.4 1.9 2.9l186.6 86.1c.9.4 2 0 2.4-.9.1-.2.2-.5.2-.8v-108.5c0-1.2-.7-2.4-1.9-2.9l-186.6-86.1c-.9-.4-2 0-2.4.9-.2.3-.2.6-.2.8z" fill="#fff" opacity=".8"/><path d="m167.9 184.8v38.5c0 1.2.7 2.4 1.9 2.9l186.6 86.1c.9.4 2 0 2.4-.9.1-.2.2-.5.2-.8v-38.5z" fill="#fff" opacity=".8"/><ellipse cx="174.9" cy="124.4" fill="#ed1c24" rx="2" ry="3.2" transform="matrix(.7826 -.6225 .6225 .7826 -39.435 135.9361)"/><ellipse cx="181.3" cy="127.4" fill="#fbb040" rx="2" ry="3.2" transform="matrix(.7826 -.6225 .6225 .7826 -39.8771 140.5515)"/><ellipse cx="186.9" cy="130.4" fill="#2bb673" rx="2" ry="3.1" transform="matrix(.7828 -.6222 .6222 .7828 -40.584 144.6056)"/><path d="m178.4 202-4.4-2c-.2-.1-.3-.3-.3-.4v-4.4c0-.1.1-.3.3-.3h.1l4.5 2.1c.2.1.3.3.3.4v4.4c0 .1-.2.3-.3.2-.1 0-.1 0-.2 0z" fill="#a4c8e4"/><path d="m321.6 268.2-137.4-63.4c-.2-.1-.3-.3-.3-.4v-4.4c0-.2.1-.3.3-.3h.1l137.4 63.5c.2.1.3.2.3.4v4.4c0 .1-.1.3-.3.3 0-.1-.1-.1-.1-.1z" fill="#d6d6d6"/><path d="m178.4 212.3-4.4-2.1c-.2-.1-.3-.3-.3-.4v-4.4c0-.1.1-.3.3-.3h.1l4.6 2.1c.1 0 .2.1.2.2v4.5c0 .1-.1.3-.2.3-.2.2-.2.1-.3.1z" fill="#a4c8e4"/><path d="m304.1 270.3-119.9-55.3c-.2-.1-.3-.3-.3-.4v-4.4c0-.2.1-.3.3-.3h.1l119.9 55.3c.2.1.3.2.3.4v4.4c0 .2-.1.3-.2.3s-.1 0-.2 0z" fill="#d6d6d6"/><path d="m178.4 222.6-4.4-2.1c-.2-.1-.3-.2-.3-.4v-4.4c0-.1.1-.3.3-.3h.1l4.5 2.1c.2.1.3.2.3.4v4.4c0 .1-.1.3-.2.3s-.2 0-.3 0z" fill="#a4c8e4"/><path d="m245.2 253.4-61-28.1c-.2-.1-.3-.2-.3-.4v-4.4c0-.1.1-.3.3-.3h.1l61 28.1c.2.1.3.3.3.4v4.4c0 .2-.1.3-.3.3z" fill="#d6d6d6"/><ellipse cx="339" cy="263.1" fill="#008bdb" rx="5.8" ry="9.4" transform="matrix(.7854 -.619 .619 .7854 -90.0879 266.2434)"/><path d="m214.8 199.8-40.8-18.8c-.2-.1-.3-.3-.3-.4v-4.4c0-.1.1-.3.3-.3h.1l40.9 18.8c.2.1.3.2.3.4v4.4c0 .1-.1.3-.3.3-.1.1-.1 0-.2 0z" fill="#fff"/><path d="m72.3 244.2 41 18.9-68.2 31.5-41-18.9z" fill="#0f5584"/><path d="m65.3 251.7c.9-1.9 1.9-3.8 3-5.6l-10.6 4.9c-1.5 2-2.9 4.1-4.2 6.2-1.7 2.7-3.5 5.5-4.9 8.4-1.5 2.9-2.7 5.9-3.7 9-1.8 6.1-2.7 12.4-2.5 18.8l2.7 1.2 16.5-7.6c-.5-2.9-.9-5.8-1-8.7-.6-9.1 1-18.3 4.7-26.6z" fill="#27aae1"/><path d="m44.9 274.6c1-3.1 2.2-6.1 3.7-9s3.2-5.6 4.9-8.4c1.3-2.1 2.7-4.2 4.2-6.2l-15.6 7.2c-4.7 6.3-8.2 13.4-10.4 20.9-.8 2.8-1.3 5.6-1.6 8.5l12.4 5.7c-.3-6.3.6-12.7 2.4-18.7z" fill="#1b75bc"/><path d="m70 259.5c.4-3.6 1.2-7.2 2.4-10.7.5-1.3 1-2.6 1.6-3.8l-1.7-.8-4.1 1.9c-1.1 1.8-2.1 3.6-3 5.6-3.7 8.4-5.3 17.5-4.8 26.6.1 2.9.5 5.8 1 8.7l10.9-5c-2.3-7.3-3.1-15-2.3-22.5z" fill="#1b75bc"/><g fill="#fff"><path d="m68.2 258.9c0-.3.3-.6.8-1l.7.3c-.2.1-.4.3-.4.6 0 .2.1.3.4.5.6.2 1.2.2 1.7 0 .9-.2 1.8-.6 2.6-1h-.1c-.4.1-.9.2-1.4.2-.4 0-.8-.1-1.1-.2-.5-.2-.7-.5-.5-.9.3-.5.7-.9 1.2-1.1.7-.4 1.5-.6 2.3-.7.7-.1 1.4 0 2 .2.8.4.8.9.1 1.6-.5.5-1.1.9-1.8 1.2-1.1.6-2.2 1-3.4 1.3-.8.2-1.7.2-2.5-.1-.4-.3-.6-.6-.6-.9zm5.4-.9c.5-.1 1-.2 1.5-.5.4-.2.7-.4.9-.8.1-.3 0-.5-.3-.6-.4-.2-.9-.2-1.3-.1-.5.1-1.1.2-1.5.5-.4.2-.7.4-.9.8-.1.3 0 .5.4.6.3.1.8.2 1.2.1z"/><path d="m77.1 258.5c.1-.1.2-.2.3-.3.2-.1.4-.1.6-.2h.5c.1.1.2.1.1.2s-.2.2-.3.3c-.2.1-.4.2-.6.2s-.3 0-.5 0c-.1-.1-.2-.1-.1-.2zm-3.9 2c.1-.1.2-.2.3-.3.2-.1.4-.2.6-.2h.5c.1.1.2.1.1.2s-.2.2-.3.3c-.2.1-.4.2-.6.2s-.4 0-.5 0-.1-.1-.1-.2z"/><path d="m81.4 258.5c.6-.1 1.2 0 1.8.2.5.2.7.5.6.8s-.4.7-1 1c-.4.2-.9.4-1.3.5-.5.1-1.3.3-2.4.4l-3.1.4h-.1l2.5 1-.8.4-3.4-1.4.6-.3 4.5-.6c.8-.1 1.4-.2 1.8-.3.3-.1.7-.2 1-.4s.6-.4.6-.6-.1-.4-.4-.5c-.4-.1-.7-.2-1.1-.1-.5.1-.9.2-1.3.4l-.6-.3c.7-.2 1.4-.5 2.1-.6z"/><path d="m78.9 264 2.2-.6 2.1-.6 2.1-.6 2.2-.6h.1l-2.8-1.2.8-.4 3.4 1.5-.8.5-8.7 2.4z"/></g><path d="m113.3 263.1v2.6l-68.2 31.5v-2.6z" fill="#1f1e1e"/><path d="m45.1 294.6v2.6l-41-18.9v-2.6z" fill="#3e3d3d"/><path d="m99.6 256.8-2.1 1c-.8.4-1.7.4-2.4 0l-11.1-5.2c-.3-.2-.5-.6-.3-.9.1-.1.2-.3.3-.3l2-.9z" fill="#1f1e1e"/><path d="m423.5 271v126l81.9 37.8v-126z" fill="#3e3d3d"/><path d="m505.4 308.8 3.6-1.7-81.8-37.8-3.7 1.7z" fill="#7b7979"/><path d="m509 307.1-3.6 1.7v126l3.6-1.8z" fill="#1f1e1e"/><ellipse cx="462.3" cy="408" fill="#1f1e1e" rx="2.4" ry="3.8" transform="matrix(.7826 -.6225 .6225 .7826 -153.4677 376.4851)"/><path d="m428.5 386.8v-106.4l70.9 32.7v106.4z" fill="#7b7979"/><path d="m490.9 354.9c-1.8.2-3.6.1-5.4.3-3.7.5-7.3 1.4-10.8 2.6-5.9 1.8-11.9 3.3-17.8 4.9-2.4.6-5 1.3-7.4.9-2.8-.5-5.2-2.1-7.5-3.8s-4.8-3.6-6-6.3c-.4-1.3-.9-2.6-1.5-3.8-.8-1-1.7-2-2.7-2.8-1.3-1.2-2.5-2.6-3.4-4.1v13.4c.7.8 1.4 1.6 2.1 2.4 3.8 4.1 7.2 8.6 10.2 13.3.6 1 1.3 2 2.1 2.9 1.4 1.2 2.9 2.1 4.6 2.7 1.5.7 3.2 1.3 4.8 1.5s3.1 0 4.7 0c2.3.1 4.5.7 6.8.5s4.3-1.4 6.5-2c2.2-.5 4.4-.9 6.6-1.1 8-1.2 15.4-4.9 22.4-9.1v-15c-2.5 1.4-5.3 2.3-8.3 2.6z" fill="#999c7e"/><path d="m434.8 372.6c1.9 2.7 4.1 5.1 6.4 7.4 1.1 1.3 2.4 2.3 3.9 3.2 1.3.6 2.7 1.1 4.1 1.5 1.5.6 2.9 1.4 4.4 2 6.2 2.6 13.2 1.5 19.9.5 9-1.5 18.4-3.2 25.9-8.1v-11.8c-7 4.2-14.4 7.9-22.4 9.1-2.2.2-4.4.6-6.6 1.1-2.2.6-4.2 1.7-6.5 2s-4.5-.4-6.8-.5c-1.6-.1-3.1.1-4.7 0-1.7-.3-3.3-.8-4.8-1.5-1.7-.6-3.3-1.5-4.6-2.7-.8-.9-1.5-1.8-2.1-2.9-3-4.7-6.4-9.2-10.2-13.3-.7-.8-1.5-1.6-2.1-2.4v7.7c1.2 1.4 2.4 2.8 3.5 4.3.9 1.4 1.7 3 2.7 4.4z" fill="#bd8f51"/><path d="m473.5 387.2c-6.6 1.1-13.7 2.1-19.9-.5-1.5-.6-2.9-1.5-4.4-2-1.4-.4-2.8-.9-4.1-1.5-1.5-.9-2.8-1.9-3.9-3.2-2.4-2.3-4.5-4.7-6.4-7.4-1-1.5-1.9-3-2.9-4.5-1.1-1.5-2.2-2.9-3.5-4.3v23l70.9 32.7v-40.4c-7.4 5-16.8 6.7-25.8 8.1z" fill="#bb9561"/><path d="m498.7 338.7c-2.6 0-5.3-.3-7.9 0-2 .3-3.9.5-5.9.6-5.2-.3-9.2-4.4-12.7-8.3-2-2.3-4.1-4.7-5.1-7.6-.1-.9-.6-1.8-1.4-2.4-.7-.4-1.6-.2-2.3-.5-1.5-.5-2.3-2.5-3.8-2.6-.5 0-1.1.2-1.5.5-1.6 1-2.9 2.2-4.1 3.7s-2.6 2.7-4.3 3.5-3.8.6-5.2-.6c-.5-.5-.9-1.1-1.5-1.3-.3-.1-.7 0-1 .1-1.4.4-2.6 1-3.6 2-.3.3-.6.5-1 .6-1 .2-1.7-1-2.4-1.8-1.4-1.5-3.8-1.4-5.9-1.8l-.5-.1v20.1c.9 1.5 2.1 2.9 3.4 4.1 1 .8 1.9 1.7 2.7 2.8.6 1.2 1.1 2.5 1.5 3.8 1.2 2.7 3.6 4.6 6 6.3s4.7 3.3 7.5 3.8c2.5.4 5-.2 7.4-.9 6-1.5 11.9-3 17.8-4.9 3.5-1.2 7.1-2.1 10.8-2.6 1.8-.2 3.6-.1 5.4-.3 3-.3 5.8-1.1 8.5-2.5v-13.7z" fill="#278f80"/><path d="m434.9 324.5c.7.8 1.4 2 2.4 1.8.4-.1.7-.4 1-.6 1-1 2.3-1.6 3.6-2 .3-.1.7-.1 1-.1.7.1 1 .8 1.5 1.3 1.5 1.2 3.5 1.5 5.2.6 1.7-.8 3.1-2 4.3-3.5s2.5-2.7 4.1-3.7c.5-.3 1-.5 1.5-.5 1.6.1 2.4 2.1 3.8 2.6.8.2 1.6.1 2.3.5.7.6 1.2 1.5 1.4 2.4 1 2.9 3 5.3 5.1 7.6 3.4 3.9 7.5 8.1 12.7 8.3 2-.1 3.9-.2 5.9-.6 2.6-.2 5.3.1 7.9 0h.7v-25.6l-70.9-32.7v42.2l.5.1c2.2.5 4.6.4 6 1.9z" fill="#238474"/><path d="m415 361.3v-66.6c0-1 .8-1.8 1.8-1.8.3 0 .5.1.8.2l66.7 30.8c1 .4 1.6 1.4 1.6 2.5v66.6c0 1-.8 1.8-1.8 1.8-.3 0-.5-.1-.8-.2l-66.8-30.8c-.8-.5-1.4-1.5-1.5-2.5z" fill="#fff" opacity=".2"/><path d="m404 365.7v-66.6c0-1 .8-1.8 1.8-1.8.3 0 .5.1.8.2l66.7 30.8c1 .4 1.6 1.4 1.6 2.5v66.6c0 1-.8 1.8-1.8 1.8-.3 0-.5-.1-.8-.2l-66.7-30.8c-.9-.4-1.6-1.4-1.6-2.5z" fill="#fff" opacity=".5"/><path d="m393 370v-66.6c0-1 .8-1.8 1.8-1.8.3 0 .5.1.8.2l66.7 30.8c1 .4 1.6 1.4 1.6 2.5v66.6c0 1-.8 1.8-1.8 1.8-.3 0-.5-.1-.8-.2l-66.8-30.8c-.8-.5-1.4-1.4-1.5-2.5z" fill="#fff" opacity=".8"/><path d="m393 327.5v42.5c0 1.1.6 2 1.6 2.5l66.8 30.8c.9.4 2 0 2.4-.9.1-.2.2-.5.2-.8v-41.4z" fill="#fff"/><ellipse cx="426.6" cy="343" fill="#00c1db" rx="7" ry="11.1" transform="matrix(.7826 -.6225 .6225 .7826 -120.803 340.1557)"/><path d="m426.6 344.2c-1.8-.9-3-2.7-3.2-4.7 0-1.8 1.4-2.5 3.2-1.7 1.8.9 3 2.7 3.2 4.7.1 1.8-1.4 2.5-3.2 1.7zm0-5.7c-1.4-.6-2.5 0-2.5 1.4.1 1.6 1.1 3 2.5 3.7 1.4.6 2.5 0 2.5-1.4-.1-1.6-1-3-2.5-3.7z" fill="#fff"/><path d="m430.9 349.6c-.9-1.9-2.4-3.4-4.2-4.3-1.7-.8-3.3-.7-4.2.4l-.6-.6c1.1-1.1 2.9-1.3 4.8-.4 2.1 1 3.8 2.7 4.8 4.8z" fill="#fff"/><path d="m447 372.9-40.9-18.9c-.2-.1-.3-.3-.3-.4v-4.4c0-.2.1-.3.3-.3h.1l40.9 18.8c.2.1.3.2.3.4v4.4c0 .1-.1.3-.2.3-.1.1-.1.1-.2.1z" fill="#7b7979" opacity=".25"/><path d="m438.6 377.2-24-11c-.1 0-.2-.1-.2-.2v-2.6c0-.1.1-.2.2-.2h.1l24 11c.1 0 .2.1.2.3v2.6c-.1 0-.1.1-.3.1z" fill="#7b7979" opacity=".25"/><path d="m277 426.8v-2.6l-204.6-94.5v2.6z" fill="#e5e4e4"/><path d="m277 426.8 68.3-31.5v-6.6l-68.3 35.5z" fill="#cac9ca"/><path d="m72.4 329.7 68.2-35.5 204.7 94.5-68.3 35.5z" fill="#dcdbdb"/><g fill="#fff" opacity=".8"><path d="m131 302.4c-.5.3-.5.6 0 .9l10.1 4.7c.6.2 1.2.2 1.8 0l8.5-4.5c.5-.2.5-.6 0-.9l-10.1-4.7c-.6-.2-1.2-.2-1.8 0z"/><path d="m165 309.6c.5-.2.5-.6 0-.9l-10-4.6c-.6-.2-1.2-.2-1.8 0l-8.5 4.5c-.5.3-.5.7 0 .9l9.9 4.6c.6.2 1.2.2 1.8 0z"/><path d="m158.1 314.8c-.5.3-.5.6 0 .9l9.9 4.6c.6.2 1.2.2 1.8 0l8.5-4.5c.5-.3.5-.6 0-.9l-9.9-4.6c-.6-.2-1.2-.2-1.8 0z"/><path d="m191.8 321.9c.5-.3.5-.6 0-.9l-9.9-4.6c-.6-.2-1.2-.2-1.8 0l-8.6 4.5c-.5.3-.5.6 0 .9l9.9 4.6c.6.2 1.2.2 1.8 0z"/><path d="m205.3 328.1c.5-.3.5-.7 0-.9l-9.9-4.6c-.6-.2-1.2-.2-1.8 0l-8.5 4.5c-.5.2-.5.6 0 .9l9.9 4.6c.6.2 1.2.2 1.8 0z"/><path d="m198.4 333.4c-.5.2-.5.6 0 .9l9.9 4.6c.6.2 1.2.2 1.8 0l8.5-4.5c.5-.3.5-.7 0-.9l-9.9-4.6c-.6-.2-1.2-.2-1.8 0z"/><path d="m232.1 340.5c.5-.2.5-.6 0-.9l-9.9-4.6c-.6-.2-1.2-.2-1.8 0l-8.5 4.5c-.5.2-.5.6 0 .9l9.9 4.5c.6.2 1.2.2 1.8 0z"/><path d="m225.3 345.8c-.5.3-.5.7 0 .9l9.9 4.6c.6.2 1.2.2 1.8 0l8.5-4.5c.5-.2.5-.6 0-.9l-9.9-4.6c-.6-.2-1.2-.2-1.8 0z"/><path d="m238.7 352c-.5.3-.5.6 0 .9l9.9 4.6c.6.2 1.2.2 1.8 0l8.5-4.5c.5-.2.5-.6 0-.9l-9.9-4.6c-.6-.2-1.2-.2-1.8 0z"/><path d="m252.2 358.1c-.5.3-.5.6 0 .9l9.9 4.6c.6.2 1.2.2 1.8 0l8.5-4.5c.5-.3.5-.6 0-.9l-9.9-4.6c-.6-.2-1.2-.2-1.8 0z"/><path d="m265.6 364.3c-.5.3-.5.6 0 .9l9.9 4.6c.6.2 1.2.2 1.8 0l8.5-4.5c.5-.3.5-.7 0-.9l-9.9-4.6c-.6-.2-1.2-.2-1.8 0z"/><path d="m279 370.5c-.5.2-.5.6 0 .9l10 4.6c.6.2 1.2.2 1.8 0l8.5-4.5c.5-.3.5-.7 0-.9l-10-4.6c-.6-.2-1.2-.2-1.8 0z"/><path d="m312.7 377.6c.5-.2.5-.6 0-.9l-9.9-4.6c-.6-.2-1.2-.2-1.8 0l-8.5 4.5c-.5.2-.5.6 0 .9l9.9 4.6c.6.2 1.2.2 1.8 0z"/><path d="m337.3 389.1c.5-.3.5-.7 0-.9l-21-9.7c-.6-.2-1.2-.2-1.8 0l-8.5 4.5c-.5.3-.5.7 0 .9l21 9.7c.6.2 1.2.2 1.8 0z"/><path d="m128.6 304.5c-.6-.2-1.2-.2-1.8 0l-8.5 4.5c-.5.3-.5.7 0 .9l13.3 6.1c.6.2 1.2.2 1.8 0l8.5-4.5c.5-.2.5-.6 0-.9z"/><path d="m155.5 317.8c.5-.3.5-.6 0-.9l-9.9-4.6c-.6-.2-1.2-.2-1.8 0l-8.5 4.5c-.5.3-.5.6 0 .9l9.9 4.6c.6.2 1.2.2 1.8 0z"/><path d="m148.7 323c-.5.3-.5.6 0 .9l9.9 4.6c.6.2 1.2.2 1.8 0l8.6-4.5c.5-.3.5-.6 0-.9l-10-4.6c-.6-.2-1.2-.2-1.8 0z"/><path d="m182.4 330.1c.5-.3.5-.7 0-.9l-9.9-4.6c-.6-.2-1.2-.2-1.8 0l-8.5 4.5c-.5.2-.5.6 0 .9l9.9 4.6c.6.2 1.2.2 1.8 0z"/><path d="m195.8 336.3c.5-.3.5-.7 0-.9l-9.9-4.6c-.6-.2-1.2-.2-1.8 0l-8.5 4.5c-.5.2-.5.6 0 .9l9.9 4.6c.6.2 1.2.2 1.8 0z"/><path d="m209.3 342.5c.5-.2.5-.6 0-.9l-9.9-4.6c-.6-.2-1.2-.2-1.8 0l-8.6 4.5c-.5.2-.5.6 0 .9l9.9 4.6c.6.2 1.2.2 1.8 0z"/><path d="m202.4 347.8c-.5.3-.5.7 0 .9l9.9 4.6c.6.2 1.2.2 1.8 0l8.5-4.5c.5-.2.5-.6 0-.9l-9.9-4.6c-.6-.2-1.2-.2-1.8 0z"/><path d="m215.9 354c-.5.3-.5.7 0 .9l9.9 4.6c.6.2 1.2.2 1.8 0l8.5-4.5c.5-.3.5-.6 0-.9l-9.9-4.6c-.6-.2-1.2-.2-1.8 0z"/><path d="m229.3 360.2c-.5.3-.5.6 0 .9l9.9 4.6c.6.2 1.2.2 1.8 0l8.5-4.5c.5-.3.5-.6 0-.9l-9.9-4.6c-.6-.2-1.2-.2-1.8 0z"/><path d="m242.8 366.4c-.5.2-.5.6 0 .9l9.9 4.6c.6.2 1.2.2 1.8 0l8.5-4.5c.5-.3.5-.7 0-.9l-9.9-4.6c-.6-.2-1.2-.2-1.8 0z"/><path d="m256.2 372.5c-.5.2-.5.6 0 .9l9.9 4.6c.6.2 1.2.2 1.8 0l8.5-4.5c.5-.2.5-.6 0-.9l-9.9-4.6c-.6-.2-1.2-.2-1.8 0z"/><path d="m269.6 378.7c-.5.2-.5.6 0 .9l9.9 4.6c.6.2 1.2.2 1.8 0l8.5-4.5c.5-.2.5-.6 0-.9l-9.9-4.6c-.6-.2-1.2-.2-1.8 0z"/><path d="m283.1 384.9c-.5.2-.5.6 0 .9l9.9 4.6c.6.2 1.2.2 1.8 0l8.5-4.5c.5-.2.5-.6 0-.9l-9.9-4.6c-.6-.2-1.2-.2-1.8 0z"/><path d="m105.2 315.9c-.5.2-.5.6 0 .9l16 7.4c.6.2 1.2.2 1.8 0l8.5-4.5c.5-.3.5-.7 0-.9l-16-7.4c-.6-.2-1.2-.2-1.8 0z"/><path d="m145.2 326c.5-.3.5-.7 0-.9l-9.9-4.6c-.6-.2-1.2-.2-1.8 0l-8.6 4.4c-.5.2-.5.6 0 .9l9.9 4.6c.6.2 1.2.2 1.8 0z"/><path d="m158.6 332.1c.5-.2.5-.6 0-.9l-9.9-4.6c-.6-.2-1.2-.2-1.8 0l-8.5 4.5c-.5.2-.5.6 0 .9l9.9 4.6c.6.2 1.2.2 1.8 0z"/><path d="m172.1 338.3c.5-.2.5-.6 0-.9l-9.9-4.6c-.6-.2-1.2-.2-1.8 0l-8.5 4.5c-.5.3-.5.7 0 .9l9.9 4.6c.6.2 1.2.2 1.8 0z"/><path d="m185.5 344.5c.5-.3.5-.6 0-.9l-9.9-4.6c-.6-.2-1.2-.2-1.8 0l-8.5 4.5c-.5.3-.5.6 0 .9l9.9 4.6c.6.2 1.2.2 1.8 0z"/><path d="m199 350.7c.5-.2.5-.6 0-.9l-10-4.6c-.6-.2-1.2-.2-1.8 0l-8.5 4.5c-.5.3-.5.6 0 .9l9.9 4.6c.6.2 1.2.2 1.8 0z"/><path d="m212.4 356.9c.5-.3.5-.6 0-.9l-9.9-4.6c-.6-.2-1.2-.2-1.8 0l-8.6 4.6c-.5.2-.5.6 0 .9l9.9 4.6c.6.2 1.2.2 1.8 0z"/><path d="m225.8 363.1c.5-.3.5-.7 0-.9l-9.9-4.6c-.6-.2-1.2-.2-1.8 0l-8.5 4.5c-.5.2-.5.6 0 .9l9.9 4.6c.6.2 1.2.2 1.8 0z"/><path d="m239.3 369.3c.5-.3.5-.7 0-.9l-9.9-4.6c-.6-.2-1.2-.2-1.8 0l-8.5 4.5c-.5.2-.5.6 0 .9l9.9 4.6c.6.2 1.2.2 1.8 0z"/><path d="m252.7 375.5c.5-.2.5-.6 0-.9l-9.9-4.6c-.6-.2-1.2-.2-1.8 0l-8.5 4.5c-.5.3-.5.7 0 .9l9.9 4.6c.6.2 1.2.2 1.8 0z"/><path d="m266.1 381.6c.5-.2.5-.6 0-.9l-9.9-4.6c-.6-.2-1.2-.2-1.8 0l-8.5 4.5c-.5.3-.5.6 0 .9l9.9 4.6c.6.2 1.2.2 1.8 0z"/><path d="m279.6 387.8c.5-.2.5-.6 0-.9l-9.9-4.6c-.6-.2-1.2-.2-1.8 0l-8.5 4.5c-.5.3-.5.6 0 .9l9.9 4.6c.6.2 1.2.2 1.8 0z"/><path d="m293 394c.5-.3.5-.7 0-.9l-9.9-4.6c-.6-.2-1.2-.2-1.8 0l-8.5 4.5c-.5.3-.5.7 0 .9l9.9 4.6c.6.2 1.2.2 1.8 0z"/><path d="m296.9 391.1c-.5.3-.6.6-.3.7s1.8 1.3 1.3 1.6l-11.5 6c-.5.2-.5.6 0 .9l15.1 6.9c.6.2 1.2.2 1.8 0l21.7-11.2c.5-.2.5-.6 0-.9l-18-8.4c-.6-.2-1.2-.2-1.8 0z"/><path d="m124.3 328.7c.5-.2.5-.6 0-.9l-21.3-9.8c-.6-.2-1.2-.2-1.8 0l-8.5 4.5c-.5.2-.5.6 0 .9l21.3 9.8c.6.2 1.2.2 1.8 0z"/><path d="m265.8 402.2c-.5.2-.5.6 0 .9l22.9 10.6c.6.2 1.2.2 1.8 0l8.5-4.5c.5-.3.5-.6 0-.9l-23-10.6c-.6-.2-1.2-.2-1.8 0z"/><path d="m137.8 334.9c.5-.3.5-.7 0-.9l-9.9-4.6c-.6-.2-1.2-.2-1.8 0l-8.5 4.5c-.5.2-.5.6 0 .9l9.9 4.6c.6.2 1.2.2 1.8 0z"/><path d="m130.9 340.1c-.5.2-.5.6 0 .9l9.9 4.6c.6.2 1.2.2 1.8 0l8.5-4.5c.5-.2.5-.6 0-.9l-9.9-4.6c-.6-.2-1.2-.2-1.8 0z"/><path d="m164.6 347.2c.5-.2.5-.6 0-.9l-9.9-4.6c-.6-.2-1.2-.2-1.8 0l-8.5 4.5c-.5.2-.5.6 0 .9l9.9 4.6c.6.2 1.2.2 1.8 0z"/><path d="m178.1 353.4c.5-.2.5-.6 0-.9l-9.9-4.5c-.6-.2-1.2-.2-1.8 0l-8.5 4.5c-.5.3-.5.7 0 .9l9.9 4.6c.6.2 1.2.2 1.8 0z"/><path d="m191.5 359.6c.5-.2.5-.6 0-.9l-9.9-4.6c-.6-.2-1.2-.2-1.8 0l-8.5 4.5c-.5.3-.5.6 0 .9l9.9 4.6c.6.2 1.2.2 1.8 0z"/><path d="m204.9 365.8c.5-.3.5-.6 0-.9l-9.9-4.6c-.6-.2-1.2-.2-1.8 0l-8.5 4.5c-.5.2-.5.6 0 .9l9.9 4.6c.6.2 1.2.2 1.8 0z"/><path d="m218.4 372c.5-.3.5-.7 0-.9l-9.9-4.6c-.6-.2-1.2-.2-1.8 0l-8.5 4.5c-.5.2-.5.6 0 .9l9.9 4.6c.6.2 1.2.2 1.8 0z"/><path d="m231.8 378.2c.5-.3.5-.7 0-.9l-9.9-4.6c-.6-.2-1.2-.2-1.8 0l-8.5 4.5c-.5.2-.5.6 0 .9l9.9 4.6c.6.2 1.2.2 1.8 0z"/><path d="m245.2 384.4c.5-.3.5-.7 0-.9l-9.9-4.6c-.6-.2-1.2-.2-1.8 0l-8.5 4.5c-.5.2-.5.6 0 .9l9.9 4.6c.6.2 1.2.2 1.8 0z"/><path d="m258.7 390.6c.5-.2.5-.6 0-.9l-9.9-4.6c-.6-.2-1.2-.2-1.8 0l-8.5 4.5c-.5.3-.5.7 0 .9l9.9 4.6c.6.2 1.2.2 1.8 0z"/><path d="m272.1 396.8c.5-.2.5-.6 0-.9l-9.9-4.6c-.6-.2-1.2-.2-1.8 0l-8.5 4.5c-.5.3-.5.6 0 .9l9.9 4.6c.6.2 1.2.2 1.8 0z"/><path d="m131.6 353c-.5.2-.5.6 0 .9l95.3 43.9c.6.2 1.2.2 1.8 0l8.5-4.5c.5-.2.5-.6 0-.9l-95.3-43.9c-.6-.2-1.2-.2-1.8 0z"/><path d="m79.8 329.2c-.5.2-.5.6 0 .9l15.9 7.3c.6.2 1.2.2 1.8 0l8.5-4.5c.5-.2.5-.6 0-.9l-15.9-7.3c-.6-.2-1.2-.2-1.8 0z"/><path d="m99.5 338.3c-.5.3-.5.7 0 .9l11.8 5.5c.6.2 1.2.2 1.8 0l8.5-4.5c.5-.2.5-.6 0-.9l-11.8-5.5c-.6-.2-1.2-.2-1.8 0z"/><path d="m114.9 345.3c-.5.3-.5.7 0 .9l12.7 5.9c.6.2 1.2.2 1.8 0l8.5-4.5c.5-.2.5-.6 0-.9l-12.7-5.9c-.6-.2-1.2-.2-1.8 0z"/><path d="m230.4 398.5c-.5.3-.5.7 0 .9l16.3 7.5c.6.2 1.2.2 1.8 0l8.5-4.5c.5-.3.5-.6 0-.9l-16.3-7.5c-.6-.2-1.2-.2-1.8 0z"/><path d="m250.5 407.8c-.5.2-.5.6 0 .9l11 5.1c.6.2 1.2.2 1.8 0l8.5-4.5c.5-.3.5-.7 0-.9l-11-5.1c-.6-.2-1.2-.2-1.8 0z"/><path d="m265.5 414.7c-.5.2-.5.6 0 .9l10.5 4.8c.6.2 1.2.2 1.8 0l8.5-4.5c.5-.3.5-.7 0-.9l-10.5-4.8c-.6-.2-1.2-.2-1.8 0z"/></g><path d="m399.9 402.1 68.2 31.5-81.9 37.8-68.2-31.5z" fill="#a69e76"/><path d="m468.1 433.6v5.6l-81.9 37.8v-5.6z" fill="#dfdfdf"/><path d="m386.2 471.4v5.6l-68.2-31.5v-5.6z" fill="#efefef"/><ellipse cx="403.7" cy="408.8" fill="#535353" rx="2.1" ry="1.1" transform="matrix(.8971 -.4418 .4418 .8971 -139.0795 220.444)"/><path d="m409.7 399.7c-3.9 0-7 3.1-7 7 0 .8.1 1.6.4 2.3.1.2.4.3.7.2s.5-.4.4-.6c-1.1-3 .5-6.3 3.5-7.4s6.3.5 7.4 3.5c.5 1.4.4 3-.2 4.3l1.1.5c.4-.9.6-1.9.6-2.9 0-3.7-3-6.8-6.9-6.9z" fill="url(#f)"/><ellipse cx="409.8" cy="411.6" fill="#5e5e5e" rx="2.1" ry="1.1" transform="matrix(.8971 -.4418 .4418 .8971 -139.6968 223.4225)"/><path d="m415.8 402.5c-3.8 0-7 3.2-7 7 0 .8.1 1.6.4 2.3.1.2.5.3.7.2.3-.1.5-.4.4-.6-1.1-3 .5-6.3 3.5-7.4s6.3.5 7.4 3.5c.5 1.4.4 3-.2 4.4l1.1.5c1.6-3.5 0-7.7-3.5-9.3-.9-.3-1.8-.5-2.8-.6z" fill="url(#g)"/><ellipse cx="415.9" cy="414.4" fill="#696969" rx="2.1" ry="1.1" transform="matrix(.8971 -.4418 .4418 .8971 -140.3123 226.4)"/><path d="m421.9 405.3c-3.8 0-7 3.2-7 7 0 .8.1 1.6.4 2.3.1.2.4.3.7.2s.5-.4.4-.6c-1.1-3 .5-6.3 3.5-7.4s6.3.5 7.4 3.5c.2.6.3 1.3.3 1.9 0 .8-.2 1.7-.5 2.4l1.1.5c.4-.9.6-1.9.6-2.9.1-3.7-3-6.8-6.9-6.9z" fill="url(#h)"/><ellipse cx="422" cy="417.2" fill="#747474" rx="2.1" ry="1.1" transform="matrix(.8971 -.4418 .4418 .8971 -140.9223 229.381)"/><path d="m428 408.1c-3.8 0-7 3.1-7 6.9 0 .8.1 1.6.4 2.3.1.2.4.3.7.2s.5-.4.4-.6c-1.1-3 .5-6.3 3.5-7.4s6.3.5 7.4 3.5c.5 1.4.4 3-.2 4.4l1.1.5c1.6-3.5 0-7.7-3.5-9.3-.9-.2-1.8-.4-2.8-.5z" fill="url(#i)"/><ellipse cx="428.1" cy="420" fill="#808080" rx="2.1" ry="1.1" transform="matrix(.8971 -.4418 .4418 .8971 -141.5372 232.3522)"/><path d="m434.1 411c-3.8 0-7 3.2-7 7 0 .8.1 1.6.4 2.3.1.2.4.3.7.2s.5-.4.4-.6c-1.1-3 .5-6.3 3.5-7.4s6.3.5 7.4 3.5c.5 1.4.4 3-.2 4.4l1.1.5c1.6-3.5 0-7.7-3.5-9.3-.9-.3-1.9-.6-2.8-.6z" fill="url(#j)"/><ellipse cx="434.2" cy="422.9" fill="#8b8b8b" rx="2.1" ry="1.1" transform="matrix(.8971 -.4418 .4418 .8971 -142.1516 235.3342)"/><path d="m440.2 413.8c-3.9 0-7 3.2-6.9 7.1 0 .7.1 1.5.4 2.2.1.2.4.3.7.2s.5-.4.4-.6c-1.1-3 .5-6.3 3.5-7.4s6.3.5 7.4 3.5c.2.6.3 1.3.3 1.9 0 .8-.2 1.7-.5 2.4l1.1.5c.4-.9.6-1.9.6-2.9-.1-3.8-3.2-6.9-7-6.9z" fill="url(#k)"/><ellipse cx="440.2" cy="425.7" fill="#969696" rx="2.1" ry="1.1" transform="matrix(.8971 -.4418 .4418 .8971 -142.77 238.3082)"/><path d="m446.2 416.6c-3.8 0-6.9 3.1-7 7 0 .8.1 1.6.4 2.3.1.2.4.3.7.2s.5-.4.4-.6c-1.1-3 .5-6.3 3.5-7.4s6.3.5 7.4 3.5c.5 1.4.4 3-.2 4.4l1.1.5c1.6-3.5.1-7.6-3.4-9.2-.9-.5-1.9-.7-2.9-.7z" fill="url(#l)"/><ellipse cx="446.3" cy="428.5" fill="#a1a1a1" rx="2.1" ry="1.1" transform="matrix(.8971 -.4418 .4418 .8971 -143.3845 241.2902)"/><path d="m452.3 419.4c-3.8 0-7 3.2-7 7 0 .8.1 1.6.4 2.3.1.2.4.3.7.2s.5-.4.4-.6c-1.1-3 .5-6.3 3.5-7.3 3-1.1 6.3.5 7.3 3.5.5 1.4.4 3-.2 4.3l1.1.5c.4-.9.6-1.9.6-2.9.2-3.9-2.9-7-6.8-7z" fill="url(#m)"/><ellipse cx="452.4" cy="431.3" fill="#acacac" rx="2.1" ry="1.1" transform="matrix(.8971 -.4418 .4418 .8971 -143.9984 244.2633)"/><path d="m458.4 422.2c-3.9 0-7 3.1-7 7 0 .8.1 1.6.4 2.3.1.2.4.3.7.2s.5-.4.4-.6c-1.1-3 .5-6.3 3.5-7.4s6.3.5 7.4 3.5c.5 1.4.4 3-.2 4.4l1.1.5c1.6-3.5 0-7.7-3.5-9.3-.9-.4-1.9-.6-2.8-.6z" fill="url(#n)"/></svg>