<svg enable-background="new 0 0 549.9 475.9" viewBox="0 0 549.9 475.9" xmlns="http://www.w3.org/2000/svg" xmlns:xlink="http://www.w3.org/1999/xlink"><clipPath id="a"><path d="m370.8 78.4-55.4-7.6v73.9c0 49.7 55.4 116.1 55.4 116.1s84 0 84-49.7v-82.9z"/></clipPath><clipPath id="b"><path d="m329.9 97.2-55.4-7.6v73.9c0 49.7 55.4 116.1 55.4 116.1s84 0 84-49.7v-82.9z"/></clipPath><linearGradient id="c" gradientTransform="matrix(1 0 0 -1 0 478)" gradientUnits="userSpaceOnUse" x1="288.4049" x2="283.0749" y1="327.5598" y2="200.5598"><stop offset="0" stop-color="#bf7300"/><stop offset=".98" stop-color="#8f6515"/></linearGradient><linearGradient id="d" gradientTransform="matrix(1 0 0 -1 0 478)" gradientUnits="userSpaceOnUse" x1="317.8787" x2="285.2187" y1="250.1062" y2="175.7762"><stop offset="0" stop-color="#231f20"/><stop offset="1" stop-color="#231f20" stop-opacity="0"/></linearGradient><clipPath id="e"><path d="m466.8 299.2c0-2.8-2.2-6-5-7.3s-5-.1-5 2.7c.1 2.1 1 4 2.5 5.5v10.4l4.9 2.3v-10.4c1.5-.1 2.7-1.5 2.6-3.2 0 .1 0 .1 0 0z"/></clipPath><clipPath id="f"><path d="m164.4 148.2c-2-1-4.2-1.3-6.4-.9v-4.1c0-5.7-4.4-12.1-10-14.6-2-1-4.2-1.3-6.4-.8v-4.5c0-5.7-4.4-12.1-10-14.6-3.2-1.4-6.5-1.4-8.9.2-2.1 1.5-3.4 3.8-3.5 6.4-1.2-1.1-2.5-1.9-4-2.6-3.2-1.4-6.5-1.4-8.9.2-2.3 1.6-3.6 4.3-3.5 7.1v29.9c-1.2-1.1-2.5-1.9-4-2.6-3.2-1.4-6.5-1.4-8.9.2-2.3 1.6-3.6 4.3-3.5 7.1v39.1c0 20.8 16.8 45.3 37.6 54.6l10.3 4.6c5 2.3 10.4 3.6 15.9 3.7 4.8.1 9.4-1.2 13.4-3.7 6.9-4.5 10.7-12.4 10.7-22.4v-67.5c.1-5.9-4.3-12.3-9.9-14.8z"/></clipPath><path d="m9.7 308.6 196.8-90.8c18-8.3 29.6-26.4 29.6-46.3v-154.8c0-9.2 7.5-16.7 16.7-16.7 2.4 0 4.8.5 7 1.5l271.2 125.3c11.5 5.3 18.8 16.8 18.8 29.4v160.2c0 19.9-11.6 37.9-29.6 46.3l-208.2 96.1c-13.5 6.3-29.1 6.3-42.7 0l-259.6-119.8c-8.4-3.8-12.1-13.7-8.2-22.1 1.6-3.7 4.6-6.6 8.2-8.3z" fill="#020202" opacity=".2"/><g opacity=".1"><path d="m370.8 78.4-55.4-7.6v73.9c0 49.7 55.4 116.1 55.4 116.1s84 0 84-49.7v-82.9z"/><g clip-path="url(#a)"><path d="m468.4 184.8-97.6-33.9-79.8-48v126l177.4 81.8z" opacity=".1"/></g></g><path d="m329.9 97.2v182.4s84 0 84-49.7v-82.9z" fill="#c2c2c2"/><path d="m329.9 97.2v182.4s-55.4-66.3-55.4-116.1v-73.9z" fill="#a8a8a8"/><g clip-path="url(#b)"><path d="m427.5 203.6-97.6-33.8-79.8-48v125.9l177.4 81.9z" opacity=".1"/></g><path d="m89.5 193.6v-39.1c0-4.5 3.7-6.6 8.2-4.5 4.5 2 8.2 7.3 8.2 11.9v-41.9c0-4.5 3.7-6.6 8.2-4.5 4.5 2 8.2 7.3 8.2 11.8v-11.3c0-4.5 3.7-6.6 8.2-4.5 4.5 2 8.2 7.3 8.2 11.8v12.6c0-4.5 3.7-6.5 8.2-4.5 4.5 2 8.2 7.3 8.2 11.9v12.3c0-4.5 3.7-6.5 8.2-4.5 4.5 2 8.2 7.3 8.2 11.9v67.5c0 19.8-16 28.6-35.8 19.8l-10.3-4.6c-19.9-9.1-35.9-32.3-35.9-52.1z" fill="#ffbe00"/><path d="m150.2 256.5c-5.5-.1-10.9-1.4-15.9-3.7l-10.3-4.6c-20.7-9.3-37.6-33.8-37.6-54.6v-39.1c-.1-2.8 1.2-5.5 3.5-7.1 2.4-1.6 5.7-1.6 8.9-.2 1.5.7 2.8 1.5 4 2.6v-29.9c-.1-2.8 1.2-5.5 3.5-7.1 2.4-1.6 5.7-1.6 8.9-.2 1.5.7 2.8 1.5 4 2.6.1-2.6 1.4-5 3.5-6.4 2.4-1.6 5.7-1.6 8.9-.2 5.6 2.5 10 8.9 10 14.6v4.5c2.2-.4 4.4-.1 6.4.9 5.6 2.5 10 8.9 10 14.6v4.1c2.2-.4 4.4-.1 6.4.9 5.6 2.5 10 8.9 10 14.6v67.5c0 10-3.8 18-10.7 22.4-4 2.6-8.7 3.9-13.5 3.8zm-55.9-104.3c-.4 0-.7.1-1.1.3-.5.5-.8 1.3-.8 2v39.1c0 18.7 15.3 40.7 34 49.1l10.3 4.6c9.1 4.1 17.7 4.2 23.6.4 5.1-3.3 8-9.5 8-17.4v-67.5c0-3.3-3-7.6-6.4-9.1-1-.6-2.1-.7-3.2-.3-.5.5-.8 1.3-.8 2v38.8c0 1.7-1.3 3-3 3s-3-1.3-3-3v-51c0-3.3-3-7.6-6.4-9.1-1-.6-2.1-.7-3.2-.3-.5.5-.8 1.3-.8 2v51c0 1.7-1.3 3-3 3s-3-1.3-3-3v-63.6c0-3.3-3-7.6-6.4-9.1-1-.6-2.1-.7-3.2-.3-.5.5-.8 1.3-.8 2v63.6c0 1.7-1.3 3-3 3s-3-1.3-3-3v-52.2c0-3.3-3-7.6-6.4-9.1-1-.6-2.1-.7-3.2-.3-.5.5-.8 1.3-.8 2v69.4c0 1.7-1.3 3-3 3s-3-1.3-3-3v-27.4c0-3.3-3-7.6-6.4-9.1-.5-.3-1.2-.4-2-.5z" fill="#c49300"/><path d="m372.9 228.8 1.3-.6v126l-1.3.6z" fill="#ccc"/><path d="m372.9 228.8-177.4-81.8v125.9l177.4 81.9z" fill="#999"/><path d="m372.9 228.8 1.3-.6-177.3-81.8-1.4.6z" fill="#a8a8a8"/><path d="m372.9 354.8v3.6l-109.2 50.3v-3.6z" fill="#ccc"/><path d="m372.9 354.8-177.4-81.9-109.2 50.4 177.4 81.8z" fill="#a8a8a8"/><path d="m263.7 405.1v3.6l-177.4-81.8v-3.6z" fill="#999"/><path d="m372.9 228.8-177.4-81.8v125.9l177.4 81.9z" fill="url(#c)"/><path d="m361.4 271.6c-2.1-1.8-4.5-3.2-6.6-5.1-5.3-4.7-8.1-11.6-12.5-17.3s-11.7-10.4-18.3-7.7c-1.5.6-2.9 1.5-4.5 1.8-2.1.3-4.2-.6-6.4-1-4.9-.9-10.1 1.2-14.7-.6-3.9-1.6-6.3-5.7-10.1-7.7-4.3-2.3-9.5-1.4-14.1-.3-26.5 6.4-52 19.5-78.9 20.7v18.6l177.4 81.9v-70.2c-1.2-1.3-2.3-2.7-3.4-4-2.4-3.2-4.8-6.5-7.9-9.1z" fill="url(#d)"/><g fill="#2a2a2a" opacity=".8"><path d="m188.5 286.2c-.5.2-.5.6 0 .8l7.4 3.4c.6.2 1.2.2 1.8 0l7-3.2c.5-.2.5-.6 0-.8l-7.4-3.4c-.6-.2-1.2-.2-1.8 0z"/><path d="m215 292c.5-.2.5-.6 0-.8l-7.2-3.4c-.6-.2-1.2-.2-1.8 0l-7 3.2c-.5.2-.5.6 0 .8l7.2 3.4c.6.2 1.2.2 1.8 0z"/><path d="m209.3 295.9c-.5.2-.5.6 0 .8l7.2 3.4c.6.2 1.2.2 1.8 0l7-3.2c.5-.2.5-.6 0-.8l-7.2-3.4c-.6-.2-1.2-.2-1.8 0z"/><path d="m235.7 301.6c.5-.2.5-.6 0-.8l-7.2-3.4c-.6-.2-1.2-.2-1.8 0l-7 3.2c-.5.2-.5.6 0 .8l7.2 3.4c.6.2 1.2.2 1.8 0z"/><path d="m246 306.4c.5-.2.5-.6 0-.8l-7.2-3.4c-.6-.2-1.2-.2-1.8 0l-7 3.2c-.5.2-.5.6 0 .8l7.2 3.4c.6.2 1.2.2 1.8 0z"/><path d="m240.3 310.3c-.5.2-.5.6 0 .8l7.2 3.4c.6.2 1.2.2 1.8 0l7-3.2c.5-.2.5-.6 0-.8l-7.2-3.4c-.6-.2-1.2-.2-1.8 0z"/><path d="m266.7 316c.5-.2.5-.6 0-.8l-7.2-3.4c-.6-.2-1.2-.2-1.8 0l-7 3.2c-.5.2-.5.6 0 .8l7.2 3.4c.6.2 1.2.2 1.8 0z"/><path d="m261 319.9c-.5.2-.5.6 0 .8l7.2 3.4c.6.2 1.2.2 1.8 0l7-3.2c.5-.2.5-.6 0-.8l-7.2-3.4c-.6-.2-1.2-.2-1.8 0z"/><path d="m271.3 324.7c-.5.2-.5.6 0 .8l7.2 3.4c.6.2 1.2.2 1.8 0l7-3.2c.5-.2.5-.6 0-.8l-7.2-3.4c-.6-.2-1.2-.2-1.8 0z"/><path d="m281.7 329.5c-.5.2-.5.6 0 .8l7.2 3.4c.6.2 1.2.2 1.8 0l7-3.2c.5-.2.5-.6 0-.8l-7.2-3.4c-.6-.2-1.2-.2-1.8 0z"/><path d="m292 334.3c-.5.2-.5.6 0 .8l7.2 3.4c.6.2 1.2.2 1.8 0l7-3.2c.5-.2.5-.6 0-.8l-7.2-3.4c-.6-.2-1.2-.2-1.8 0z"/><path d="m302.3 339.1c-.5.2-.5.6 0 .8l7.2 3.4c.6.2 1.2.2 1.8 0l7-3.2c.5-.2.5-.6 0-.8l-7.2-3.4c-.6-.2-1.2-.2-1.8 0z"/><path d="m328.7 344.8c.5-.2.5-.6 0-.9l-7.2-3.4c-.6-.2-1.2-.2-1.8 0l-7 3.2c-.5.2-.5.6 0 .8l7.2 3.4c.6.2 1.2.2 1.8 0z"/><path d="m347.5 353.8c.5-.2.5-.6 0-.8l-15.8-7.3c-.6-.2-1.2-.2-1.8 0l-7 3.2c-.5.2-.5.6 0 .8l15.8 7.3c.6.2 1.2.2 1.8 0z"/><path d="m186.4 288c-.6-.2-1.2-.2-1.8 0l-7 3.2c-.5.2-.5.6 0 .8l9.8 4.6c.6.2 1.2.2 1.8 0l7-3.2c.5-.2.5-.6 0-.8z"/><path d="m206.7 298.2c.5-.2.5-.6 0-.8l-7.2-3.4c-.6-.2-1.2-.2-1.8 0l-7 3.2c-.5.2-.5.6 0 .8l7.2 3.4c.6.2 1.2.2 1.8 0z"/><path d="m201 302.1c-.5.2-.5.6 0 .8l7.2 3.4c.6.2 1.2.2 1.8 0l7-3.2c.5-.2.5-.6 0-.8l-7.2-3.4c-.6-.2-1.2-.2-1.8 0z"/><path d="m227.4 307.8c.5-.2.5-.6 0-.8l-7.2-3.4c-.6-.2-1.2-.2-1.8 0l-7 3.2c-.5.2-.5.6 0 .8l7.2 3.4c.6.2 1.2.2 1.8 0z"/><path d="m237.7 312.6c.5-.2.5-.6 0-.8l-7.2-3.4c-.6-.2-1.2-.2-1.8 0l-7 3.2c-.5.2-.5.6 0 .8l7.2 3.4c.6.2 1.2.2 1.8 0z"/><path d="m248 317.4c.5-.2.5-.6 0-.8l-7.2-3.4c-.6-.2-1.2-.2-1.8 0l-7 3.2c-.5.2-.5.6 0 .8l7.2 3.4c.6.2 1.2.2 1.8 0z"/><path d="m242.4 321.3c-.5.2-.5.6 0 .8l7.2 3.4c.6.2 1.2.2 1.8 0l7-3.2c.5-.2.5-.6 0-.8l-7.2-3.4c-.6-.2-1.2-.2-1.8 0z"/><path d="m252.7 326c-.5.2-.5.6 0 .9l7.2 3.4c.6.2 1.2.2 1.8 0l7-3.2c.5-.2.5-.6 0-.8l-7.2-3.4c-.6-.2-1.2-.2-1.8 0z"/><path d="m263 330.9c-.5.2-.5.6 0 .8l7.2 3.4c.6.2 1.2.2 1.8 0l7-3.2c.5-.2.5-.6 0-.8l-7.2-3.4c-.6-.2-1.2-.2-1.8 0z"/><path d="m273.4 335.6c-.5.2-.5.6 0 .8l7.2 3.4c.6.2 1.2.2 1.8 0l7-3.2c.5-.2.5-.6 0-.8l-7.2-3.4c-.6-.2-1.2-.2-1.8 0z"/><path d="m283.7 340.5c-.5.2-.5.6 0 .8l7.2 3.4c.6.2 1.2.2 1.8 0l7-3.2c.5-.2.5-.6 0-.8l-7.2-3.4c-.6-.2-1.2-.2-1.8 0z"/><path d="m294 345.3c-.5.2-.5.6 0 .8l7.2 3.4c.6.2 1.2.2 1.8 0l7-3.2c.5-.2.5-.6 0-.8l-7.2-3.4c-.6-.2-1.2-.2-1.8 0z"/><path d="m304.4 350c-.5.2-.5.6 0 .8l7.2 3.4c.6.2 1.2.2 1.8 0l7-3.2c.5-.2.5-.6 0-.8l-7.2-3.4c-.6-.2-1.2-.2-1.8 0z"/><path d="m166.4 296.4c-.5.2-.5.6 0 .8l11.9 5.5c.6.2 1.2.2 1.8 0l7-3.2c.5-.2.5-.6 0-.8l-11.9-5.5c-.6-.2-1.2-.2-1.8 0z"/><path d="m197.6 304.4c.5-.2.5-.6 0-.9l-7.2-3.4c-.6-.2-1.2-.2-1.8 0l-7 3.2c-.5.2-.5.6 0 .8l7.2 3.4c.6.2 1.2.2 1.8 0z"/><path d="m208 309.2c.5-.2.5-.6 0-.8l-7.2-3.4c-.6-.2-1.2-.2-1.8 0l-7 3.2c-.5.2-.5.6 0 .8l7.2 3.4c.6.2 1.2.2 1.8 0z"/><path d="m218.3 314c.5-.2.5-.6 0-.8l-7.2-3.4c-.6-.2-1.2-.2-1.8 0l-7 3.2c-.5.2-.5.6 0 .8l7.2 3.4c.6.2 1.2.2 1.8 0z"/><path d="m228.7 318.8c.5-.2.5-.6 0-.8l-7.2-3.4c-.6-.2-1.2-.2-1.8 0l-7 3.2c-.5.2-.5.6 0 .8l7.2 3.4c.6.2 1.2.2 1.8 0z"/><path d="m239 323.6c.5-.2.5-.6 0-.8l-7.2-3.4c-.6-.2-1.2-.2-1.8 0l-7 3.2c-.5.2-.5.6 0 .8l7.2 3.4c.6.2 1.2.2 1.8 0z"/><path d="m249.3 328.4c.5-.2.5-.6 0-.8l-7.2-3.4c-.6-.2-1.2-.2-1.8 0l-7 3.2c-.5.2-.5.6 0 .8l7.2 3.4c.6.2 1.2.2 1.8 0z"/><path d="m259.7 333.2c.5-.2.5-.6 0-.8l-7.2-3.4c-.6-.2-1.2-.2-1.8 0l-7 3.2c-.5.2-.5.6 0 .8l7.2 3.4c.6.2 1.2.2 1.8 0z"/><path d="m270 338c.5-.2.5-.6 0-.8l-7.2-3.4c-.6-.2-1.2-.2-1.8 0l-7 3.2c-.5.2-.5.6 0 .8l7.2 3.4c.6.2 1.2.2 1.8 0z"/><path d="m280.3 342.8c.5-.2.5-.6 0-.8l-7.2-3.4c-.6-.2-1.2-.2-1.8 0l-7 3.2c-.5.2-.5.6 0 .8l7.2 3.4c.6.2 1.2.2 1.8 0z"/><path d="m290.7 347.6c.5-.2.5-.6 0-.8l-7.2-3.4c-.6-.2-1.2-.2-1.8 0l-7 3.2c-.5.2-.5.6 0 .8l7.2 3.4c.6.2 1.2.2 1.8 0z"/><path d="m301 352.4c.5-.2.5-.6 0-.8l-7.2-3.4c-.6-.2-1.2-.2-1.8 0l-7 3.2c-.5.2-.5.6 0 .8l7.2 3.4c.6.2 1.2.2 1.8 0z"/><path d="m311.3 357.2c.5-.2.5-.6 0-.8l-7.2-3.4c-.6-.2-1.2-.2-1.8 0l-7 3.2c-.5.2-.5.6 0 .8l7.2 3.4c.6.2 1.2.2 1.8 0z"/><path d="m315.1 354.8c-.5.2-.7.5-.5.6s1.3 1 .8 1.3l-9.5 4.4c-.5.2-.5.6 0 .8l11.2 5.2c.6.2 1.2.2 1.8 0l18.1-8.2c.5-.2.5-.6 0-.8l-13.3-6.3c-.6-.2-1.2-.2-1.8 0z"/><path d="m180.5 306.3c.5-.2.5-.6 0-.8l-16-7.4c-.6-.2-1.2-.2-1.8 0l-7 3.2c-.5.2-.5.6 0 .8l16 7.4c.6.2 1.2.2 1.8 0z"/><path d="m289 363.1c-.5.2-.5.6 0 .8l17.2 8c.6.2 1.2.2 1.8 0l7-3.2c.5-.2.5-.6 0-.8l-17.2-8c-.6-.2-1.2-.2-1.8 0z"/><path d="m190.9 311.1c.5-.2.5-.6 0-.8l-7.2-3.3c-.6-.2-1.2-.2-1.8 0l-7 3.2c-.5.2-.5.6 0 .8l7.2 3.4c.6.2 1.2.2 1.8 0z"/><path d="m185.2 315c-.5.2-.5.6 0 .8l7.2 3.4c.6.2 1.2.2 1.8 0l7-3.2c.5-.2.5-.6 0-.8l-7.3-3.4c-.6-.2-1.2-.2-1.8 0z"/><path d="m211.5 320.8c.5-.2.5-.6 0-.9l-7.2-3.3c-.6-.2-1.2-.2-1.8 0l-7 3.2c-.5.2-.5.6 0 .8l7.2 3.4c.6.2 1.2.2 1.8 0z"/><path d="m221.9 325.5c.5-.2.5-.6 0-.8l-7.2-3.4c-.6-.2-1.2-.2-1.8 0l-7 3.2c-.5.2-.5.6 0 .8l7.2 3.4c.6.2 1.2.2 1.8 0z"/><path d="m232.2 330.4c.5-.2.5-.6 0-.8l-7.2-3.4c-.6-.2-1.2-.2-1.8 0l-7 3.2c-.5.2-.5.6 0 .8l7.2 3.4c.6.2 1.2.2 1.8 0z"/><path d="m242.6 335.1c.5-.2.5-.6 0-.9l-7.2-3.3c-.6-.2-1.2-.2-1.8 0l-7 3.2c-.5.2-.5.6 0 .8l7.2 3.4c.6.2 1.2.2 1.8 0z"/><path d="m252.9 340c.5-.2.5-.6 0-.8l-7.2-3.4c-.6-.2-1.2-.2-1.8 0l-7 3.2c-.5.2-.5.6 0 .8l7.2 3.4c.6.2 1.2.2 1.8 0z"/><path d="m263.2 344.8c.5-.2.5-.6 0-.8l-7.2-3.4c-.6-.2-1.2-.2-1.8 0l-7 3.2c-.5.2-.5.6 0 .8l7.2 3.4c.6.2 1.2.2 1.8 0z"/><path d="m273.5 349.5c.5-.2.5-.6 0-.8l-7.2-3.4c-.6-.2-1.2-.2-1.8 0l-7 3.2c-.5.2-.5.6 0 .8l7.2 3.4c.6.2 1.2.2 1.8 0z"/><path d="m283.9 354.4c.5-.2.5-.6 0-.8l-7.2-3.4c-.6-.2-1.2-.2-1.8 0l-7 3.2c-.5.2-.5.6 0 .8l7.2 3.4c.6.2 1.2.2 1.8 0z"/><path d="m294.2 359.1c.5-.2.5-.6 0-.8l-7.2-3.3c-.6-.2-1.2-.2-1.8 0l-7 3.2c-.5.2-.5.6 0 .8l7.2 3.4c.6.2 1.2.2 1.8 0z"/><path d="m184.7 324.8c-.5.2-.5.6 0 .8l72.9 33.9c.6.2 1.2.2 1.8 0l7-3.2c.5-.2.5-.6 0-.8l-72.9-33.9c-.6-.2-1.2-.2-1.8 0z"/><path d="m144.9 306.3c-.5.2-.5.6 0 .8l11.8 5.5c.6.2 1.2.2 1.8 0l7-3.2c.5-.2.5-.6 0-.8l-11.8-5.5c-.6-.2-1.2-.2-1.8 0z"/><path d="m160 313.4c-.5.2-.5.6 0 .8l8.7 4c.6.2 1.2.2 1.8 0l7-3.2c.5-.2.5-.6 0-.8l-8.7-4c-.6-.2-1.2-.2-1.8 0z"/><path d="m171.9 318.8c-.5.2-.5.6 0 .8l9.4 4.4c.6.2 1.2.2 1.8 0l7-3.2c.5-.2.5-.6 0-.8l-9.4-4.4c-.6-.2-1.2-.2-1.8 0z"/><path d="m260.6 360.1c-.5.2-.5.6 0 .8l12.1 5.6c.6.2 1.2.2 1.8 0l7-3.2c.5-.2.5-.6 0-.8l-12.1-5.6c-.6-.2-1.2-.2-1.8 0z"/><path d="m276.1 367.3c-.5.2-.5.6 0 .8l8.1 3.7c.6.2 1.2.2 1.8 0l7-3.2c.5-.2.5-.6 0-.8l-8.1-3.7c-.6-.2-1.2-.2-1.8 0z"/><path d="m287.6 372.6c-.5.2-.5.6 0 .8l7.6 3.5c.6.2 1.2.2 1.8 0l7-3.2c.5-.2.5-.6 0-.8l-7.6-3.5c-.6-.2-1.2-.2-1.8 0z"/></g><path d="m140.9 348.4 38.7-17.8c1.3-.6 2.9-.6 4.2 0l63.5 29.2c.7.3 1 1.2.7 1.8-.1.3-.4.5-.7.7l-37.6 17.9z" fill="#cbcbcb"/><path d="m201.1 174.8v81.5c0 .9.6 1.8 1.5 2.2l147.1 64.7c.7.3 1.6 0 1.9-.7.1-.2.1-.4.1-.5v-81.5c0-.9-.6-1.8-1.5-2.2l-147.1-64.7c-.7-.3-1.6 0-1.9.7 0 .1 0 .3-.1.5z" opacity=".1"/><path d="m187.7 177.8v81.5c0 1 .6 1.8 1.5 2.2l147.1 64.7c.7.3 1.6 0 1.9-.8.1-.2.1-.3.1-.5v-81.5c0-.9-.6-1.8-1.5-2.2l-147.1-64.7c-.7-.3-1.6 0-1.9.7 0 .2-.1.4-.1.6z" fill="#fff" opacity=".8"/><path d="m187.7 230.4v28.9c0 1 .6 1.8 1.5 2.2l147.1 64.7c.7.3 1.6 0 1.9-.8.1-.2.1-.3.1-.5v-28.9z" fill="#fff" opacity=".8"/><ellipse cx="193.3" cy="185" fill="#ed1c24" rx="1.5" ry="2.4" transform="matrix(.7462 -.6658 .6658 .7462 -74.0977 175.6516)"/><ellipse cx="198.3" cy="187.2" fill="#fbb040" rx="1.5" ry="2.4" transform="matrix(.7462 -.6658 .6658 .7462 -74.3005 179.5603)"/><ellipse cx="203.4" cy="189.4" fill="#2bb673" rx="1.5" ry="2.4" transform="matrix(.7462 -.6658 .6658 .7462 -74.4878 183.4764)"/><path d="m275.4 242.1 43.4 18.6c.5.2.8.7.8 1.2v44.8c0 .8-.7 1.3-1.5 1.3-.2 0-.3-.1-.5-.1l-43.3-18.6c-.5-.2-.8-.6-.8-1.1v-44.8c0-.7.7-1.3 1.4-1.3.2-.1.3-.1.5 0z" fill="#f00" opacity=".54"/><path d="m285 282.3 19.8 8.9v-14.1l-19.8-8.9z" fill="none" stroke="#fff" stroke-linecap="round" stroke-linejoin="round" stroke-width="3"/><path d="m287.8 269.4 14.4 6.5v-6.1c0-4-3.2-8.6-7.2-10.4-4-1.8-7.2 0-7.2 4z" fill="none" stroke="#fff" stroke-linecap="round" stroke-linejoin="round" stroke-width="3"/><path d="m196.1 243.3-3.5-1.6c-.1-.1-.2-.2-.2-.3v-3.3c0-.1.1-.2.2-.2h.1l3.5 1.6c.1.1.2.2.2.3v3.3c0 .1-.1.2-.3.2z" fill="#a4c8e4"/><path d="m248.7 266.4-48.1-21.1c-.1-.1-.2-.2-.2-.3v-3.3c0-.1.1-.2.2-.2h.1l48.1 21.1c.1.1.2.2.2.3v3.3c0 .2-.1.3-.3.2.1.1 0 .1 0 0z" fill="#d6d6d6"/><path d="m196.1 251-3.5-1.6c-.1-.1-.2-.2-.2-.3v-3.3c0-.1.1-.2.2-.2h.1l3.6 1.6c.1 0 .1.1.1.2v3.4c0 .1-.1.2-.3.2z" fill="#a4c8e4"/><path d="m248.7 274.2-48.1-21.2c-.1-.1-.2-.2-.2-.3v-3.3c0-.1.1-.2.2-.2h.1l48.1 21.1c.1.1.2.2.2.3v3.4c0 .1-.1.2-.3.2z" fill="#d6d6d6"/><path d="m196.1 258.7-3.5-1.5c-.1 0-.2-.2-.2-.3v-3.3c0-.1.1-.2.2-.2h.1l3.5 1.6c.1.1.2.2.2.3v3.3c0 .1-.1.2-.3.1z" fill="#a4c8e4"/><path d="m248.7 281.9-48.1-21.1c-.1 0-.2-.2-.2-.3v-3.3c0-.1.1-.2.2-.2h.1l48.1 21.1c.1.1.2.2.2.3v3.3c0 .1-.1.2-.3.2z" fill="#d6d6d6"/><path d="m224.8 241.6-32.2-14.1c-.1-.1-.2-.2-.2-.3v-3.3c0-.1.1-.2.2-.2h.1l32.2 14.1c.1 0 .2.2.2.3v3.3c0 .2-.1.3-.3.2z" fill="#fff"/><path d="m482.2 291.5 13.7-6.3v37.8l-13.7 6.3z" fill="#b98f2b"/><path d="m482.2 291.5-40.9-18.9v37.8l40.9 18.9z" fill="#c99b2d"/><path d="m482.2 291.5 13.7-6.3-40.9-18.9-13.7 6.3z" fill="#d7a730"/><path d="m487.2 285v-31.3c0-2-1.1-3.7-2.9-4.5l-27.3-12.6c-2.5-1.2-5.5-.1-6.6 2.5-.3.7-.5 1.4-.5 2.1v31.3.2c0 1.2 2.3 2.1 5 2.1s5-1 5-2.1c0-.1 0-.1 0-.2v-23.5l17.3 8v28 .2c0 1.2 2.2 2.1 5 2.1s5-.9 5-2.1c0-.1 0-.1 0-.2z" fill="#fc0"/><path d="m466.8 299.2c0-2.8-2.2-6-5-7.3s-5-.1-5 2.7c.1 2.1 1 4 2.5 5.5v10.4l4.9 2.3v-10.4c1.5-.1 2.7-1.5 2.6-3.2 0 .1 0 .1 0 0z" fill="#94711f"/><g clip-path="url(#e)"><path d="m459.3 310.6 4.9-2.2v4.4z" fill="#755a19"/><path d="m459.3 310.6 9.3-4.2v-10.7l-9.3 4.4v10.1" fill="#785b16"/></g><path d="m398.6 342.1c-4.2 0-7.6-3.4-7.6-7.6v-13.3c0-4.7 2.8-9 7-11l2.9-1.3c3.8-1.8 8.3-.1 10 3.7.5 1 .7 2.1.7 3.2v13.3c0 4.7-2.8 9-7 11l-2.9 1.3c-.9.5-2 .7-3.1.7zm5.5-26.9c-.1 0-.2 0-.2.1l-2.9 1.3c-1.8.8-3 2.7-3 4.7v13.3c0 .3.3.6.6.6.1 0 .2 0 .2-.1l2.9-1.3c1.8-.8 3-2.7 3-4.7v-13.3c0-.2-.1-.4-.3-.5-.1 0-.2-.1-.3-.1z" fill="#fc0"/><path d="m435.5 311.7v12.6l2.7-1.3v-6.4l2.8-1.3v5.7l2.7-1.3v-4.5l2.7-1.3v5.3l2.7-1.2v-12.6z" fill="#fc0"/><path d="m446.4 319.2-2.7-1v-3l2.7-1.3z" fill="#e6b800"/><path d="m441 321-2.8-1.4v-3l2.8-1.3z" fill="#e6b800"/><path d="m435.5 324.3-3.9-1.8v-12.6l3.9 1.8z" fill="#e6b800"/><path d="m408.2 325.5c-1.9 0-3.5-1.6-3.5-3.5 0-1.4.8-2.6 2-3.2l41-18.9c1.8-.8 3.8 0 4.6 1.7s0 3.8-1.7 4.6l-41 18.9c-.4.3-.9.4-1.4.4z" fill="#fc0"/><path d="m549.2 396-111.3-51.4-173.2 79.9 111.4 51.4z" fill="#521313"/><path d="m536.6 392.5-95.5-44-163.7 75.5 95.5 44.1z" fill="#fff"/><path d="m495.7 386.2 17.9-8.5-40.5-18.8-18.4 8.4z" fill="#aaa"/><path d="m458.4 365.6 41 18.9-3.7 1.7-41-18.9z" fill="#8e8e8e"/><path d="m506.7 351.5c-3.9-1.8-8.6-.9-11.6 2.2l-13.1 13.7 13.5 6.3 12.9-13.3c2.1-2.2 2.1-5.7-.1-7.8-.5-.5-1-.9-1.6-1.1zm-4.3 6.1c-1.1-.3-1.7-1.4-1.4-2.4s1.4-1.7 2.4-1.4c.9.2 1.5 1 1.5 1.9-.1 1.2-1.2 2.1-2.5 1.9z" fill="#aaa"/><g fill="#ed1c24"><path d="m73.2 301.7c-20.7-9.4-37.5-33.8-37.5-54.4s16.8-29.9 37.5-20.5 37.5 33.8 37.5 54.4-16.8 29.8-37.5 20.5zm0-66.6c-16-7.3-29.1-.1-29.1 15.9s13.1 35 29.1 42.3 29.1.1 29.1-15.9-13-35.1-29.1-42.3z"/><path d="m73.2 283.4c-2.4-1.1-4-3.5-4.2-6.1v-16.6c0-2.3 1.9-3.3 4.2-2.3 2.4 1.1 4 3.4 4.2 6.1v16.6c0 2.3-1.8 3.4-4.2 2.3z"/><ellipse cx="73.2" cy="249.2" rx="3.3" ry="5.2" transform="matrix(.7813 -.6242 .6242 .7813 -139.4942 100.1915)"/></g><g clip-path="url(#f)"><path d="m127.8 276.1c-20.7-9.4-37.5-33.8-37.5-54.4s16.8-29.9 37.5-20.5 37.5 33.8 37.5 54.4-16.8 29.9-37.5 20.5zm0-66.6c-16-7.3-29.1-.1-29.1 15.9s13.1 35 29.1 42.3 29.1.1 29.1-15.9-13-35-29.1-42.3z" opacity=".1"/><g opacity=".1"><path d="m127.8 257.9c-2.4-1.1-4-3.4-4.2-6.1v-16.6c0-2.3 1.9-3.3 4.2-2.3 2.4 1.1 4 3.5 4.2 6.1v16.6c0 2.3-1.9 3.3-4.2 2.3z"/><ellipse cx="127.8" cy="223.6" rx="3.3" ry="5.2" transform="matrix(.7813 -.6242 .6242 .7813 -111.6221 128.6759)"/></g></g></svg>