<svg xmlns="http://www.w3.org/2000/svg" xmlns:xlink="http://www.w3.org/1999/xlink" viewBox="0 0 573.07 463.44"><defs><style>.cls-1,.cls-10,.cls-19,.cls-46{fill:none;}.cls-2{fill:#ffffff20;}.cls-3{fill:#0f0f0f;}.cls-19,.cls-3{opacity:0.1;}.cls-4{fill:#947347;}.cls-5{fill:#a07b4c;}.cls-6{fill:#c1955d;}.cls-7{clip-path:url(#clip-path);}.cls-8,.cls-9{fill:#fafafa;}.cls-8{opacity:0.5;}.cls-10{stroke:#0f0f0f;}.cls-10,.cls-46{stroke-linecap:round;stroke-linejoin:round;}.cls-11{fill:#cac9ca;}.cls-12{fill:#dcdbdb;}.cls-13{fill:#c2c1c1;}.cls-14{fill:#e5e4e4;}.cls-15{clip-path:url(#clip-path-2);}.cls-16{fill:url(#linear-gradient);}.cls-17{fill:url(#linear-gradient-2);}.cls-18,.cls-21{fill:#fff;}.cls-19,.cls-46{stroke:#231f20;}.cls-19{stroke-miterlimit:10;stroke-width:0.25px;}.cls-20{opacity:0.8;}.cls-21{fill-rule:evenodd;}.cls-22{fill:#a69e76;}.cls-23{fill:#dfdfdf;}.cls-24{fill:#efefef;}.cls-25{fill:#535353;}.cls-26{fill:url(#linear-gradient-3);}.cls-27{fill:#5e5e5e;}.cls-28{fill:url(#linear-gradient-4);}.cls-29{fill:#696969;}.cls-30{fill:url(#linear-gradient-5);}.cls-31{fill:#747474;}.cls-32{fill:url(#linear-gradient-6);}.cls-33{fill:gray;}.cls-34{fill:url(#linear-gradient-7);}.cls-35{fill:#8b8b8b;}.cls-36{fill:url(#linear-gradient-8);}.cls-37{fill:#969696;}.cls-38{fill:url(#linear-gradient-9);}.cls-39{fill:#a1a1a1;}.cls-40{fill:url(#linear-gradient-10);}.cls-41{fill:#acacac;}.cls-42{fill:url(#linear-gradient-11);}.cls-43{fill:#8f8f8f;}.cls-44{fill:#666464;}.cls-45{fill:#bfbebe;}.cls-46{stroke-width:2px;}</style><clipPath id="clip-path"><path class="cls-1" d="M508.08,199.12V184l-40.94-18.89-6.44,3v9.2L423,159.84l-27.29,12.62-7.19,53.06a8.45,8.45,0,0,0,4.84,8.82l2.35,1.08V285.8l150.09,69.26,27.29-12.62V229.1Zm-36.93-21.24,25.48,11.76v4.19l-25.48-11.76Z"/></clipPath><clipPath id="clip-path-2"><polygon class="cls-1" points="204.67 71.72 204.67 217.49 422.98 318.2 422.98 172.46 204.67 71.72"/></clipPath><linearGradient id="linear-gradient" x1="313.82" y1="318.2" x2="313.82" y2="71.72" gradientUnits="userSpaceOnUse"><stop offset="0" stop-color="#00a5d6"/><stop offset="1" stop-color="#21a6ff"/></linearGradient><linearGradient id="linear-gradient-2" x1="313.4" y1="190.74" x2="315.72" y2="249.63" gradientUnits="userSpaceOnUse"><stop offset="0" stop-color="#fff" stop-opacity="0.5"/><stop offset="0.99" stop-color="#fff" stop-opacity="0"/></linearGradient><linearGradient id="linear-gradient-3" x1="84.77" y1="247.66" x2="98.68" y2="247.66" gradientUnits="userSpaceOnUse"><stop offset="0"/><stop offset="0.99" stop-opacity="0.1"/></linearGradient><linearGradient id="linear-gradient-4" x1="90.86" y1="250.47" x2="104.76" y2="250.47" xlink:href="#linear-gradient-3"/><linearGradient id="linear-gradient-5" x1="96.94" y1="253.28" x2="110.85" y2="253.28" xlink:href="#linear-gradient-3"/><linearGradient id="linear-gradient-6" x1="103.03" y1="256.09" x2="116.94" y2="256.09" xlink:href="#linear-gradient-3"/><linearGradient id="linear-gradient-7" x1="109.12" y1="258.9" x2="123.02" y2="258.9" xlink:href="#linear-gradient-3"/><linearGradient id="linear-gradient-8" x1="115.2" y1="261.71" x2="129.11" y2="261.71" xlink:href="#linear-gradient-3"/><linearGradient id="linear-gradient-9" x1="121.29" y1="264.52" x2="135.19" y2="264.52" xlink:href="#linear-gradient-3"/><linearGradient id="linear-gradient-10" x1="127.37" y1="267.32" x2="141.28" y2="267.32" xlink:href="#linear-gradient-3"/><linearGradient id="linear-gradient-11" x1="133.46" y1="270.13" x2="147.37" y2="270.13" xlink:href="#linear-gradient-3"/></defs><g id="Layer_2" data-name="Layer 2"><g id="Layer_3" data-name="Layer 3"><path class="cls-2" d="M19.22,308.63,216,217.82a50.94,50.94,0,0,0,29.59-46.26V16.72A16.7,16.7,0,0,1,269.3,1.56L540.57,126.75a32.42,32.42,0,0,1,18.83,29.43v160.2a50.93,50.93,0,0,1-29.6,46.26L321.52,458.76a50.94,50.94,0,0,1-42.69,0L19.22,339A16.7,16.7,0,0,1,19.22,308.63Z"/><polygon class="cls-3" points="300.18 40.22 300.18 185.99 518.49 286.7 518.49 140.96 300.18 40.22"/><g id="Bag"><polygon class="cls-4" points="545.78 241.72 573.07 229.1 573.07 342.44 545.78 355.06 545.78 241.72"/><polygon class="cls-5" points="545.78 241.72 395.69 172.46 422.98 159.84 573.07 229.1 545.78 241.72"/><polygon class="cls-6" points="545.78 241.72 545.78 355.06 395.69 285.8 395.69 172.46 545.78 241.72"/><polygon class="cls-4" points="464.7 194.68 471.15 191.7 471.15 166.93 464.7 169.9 464.7 194.68"/><polygon class="cls-4" points="501.63 211.72 501.63 186.94 508.08 183.97 508.08 208.75 501.63 211.72"/><polygon class="cls-5" points="460.7 168.06 467.14 165.08 508.08 183.97 501.63 186.94 460.7 168.06"/><path class="cls-6" d="M496.63,209.42V189.64L464.7,174.9v19.78l-4-1.85V168.05l40.93,18.89v24.78Z"/><path class="cls-4" d="M545.78,241.72l-7,51.77a5.57,5.57,0,0,1-7.87,4.31L393.34,234.34a8.45,8.45,0,0,1-4.84-8.82l7.19-53.06Z"/><g class="cls-7"><polygon class="cls-3" points="272.89 52.3 272.89 203.97 491.2 304.69 491.2 279.5 484.37 276.35 491.2 216.54 518.49 203.96 518.49 166.16 272.89 52.3"/><path class="cls-3" d="M545.93,298.32a46.3,46.3,0,0,0-14.81-11.24c-15-6.9-27.07-.38-27.07,14.57,0,9.55,4.95,20.21,12.41,28.47v11.4l3,1.38c1.78-2.1,6.33-2.08,11.66.38s9.87,6.64,11.67,10.39l3,1.39Z"/></g></g><g id="Papers"><path class="cls-8" d="M131,200.69,212,238a1.83,1.83,0,0,0,2.59-1.66V123a3.92,3.92,0,0,0-2.28-3.56L131.35,82.08a1.83,1.83,0,0,0-2.59,1.66V197.13A3.92,3.92,0,0,0,131,200.69Z"/><path class="cls-8" d="M109.59,210.59l80.91,37.33a1.82,1.82,0,0,0,2.59-1.65V132.88a3.93,3.93,0,0,0-2.28-3.57L109.9,92a1.82,1.82,0,0,0-2.59,1.65V207A3.93,3.93,0,0,0,109.59,210.59Z"/><path class="cls-9" d="M88.15,220.48l80.91,37.34a1.83,1.83,0,0,0,2.59-1.66V142.77a3.92,3.92,0,0,0-2.28-3.56L88.46,101.87a1.83,1.83,0,0,0-2.59,1.66V216.92A3.92,3.92,0,0,0,88.15,220.48Z"/><line class="cls-10" x1="97.76" y1="160.83" x2="159.75" y2="189.43"/><line class="cls-10" x1="97.76" y1="171.24" x2="159.58" y2="199.77"/><line class="cls-10" x1="97.76" y1="181.65" x2="142.47" y2="202.28"/><line class="cls-10" x1="97.76" y1="192.07" x2="159.75" y2="220.67"/><line class="cls-10" x1="97.76" y1="202.48" x2="124.22" y2="214.69"/><line class="cls-10" x1="97.76" y1="212.89" x2="124.22" y2="225.1"/><line class="cls-10" x1="133.13" y1="218.8" x2="159.58" y2="231.01"/><line class="cls-10" x1="133.13" y1="229.21" x2="159.58" y2="241.42"/><path class="cls-10" d="M126.4,148.11l12,5.53c0,6.57-5.41,9.49-12,6.45s-12-10.94-12-17.51,5.41-9.49,12-6.45l.12.05Z"/><path class="cls-10" d="M131.11,145.57v-12c6.58,3,12,10.94,12,17.51h0Z"/></g><g id="PC"><polygon class="cls-11" points="320.64 336.69 252.42 305.23 252.42 307.83 320.64 339.28 368.4 310.99 368.4 308.4 320.64 336.69"/><polygon class="cls-12" points="252.42 305.23 313.82 283.21 368.4 308.4 320.64 336.69 252.42 305.23"/><polygon class="cls-13" points="368.4 308.4 354 316.93 295.32 289.85 313.82 283.21 368.4 308.4"/><polygon class="cls-12" points="426.62 170.78 422.98 172.46 204.67 71.72 208.31 70.04 426.62 170.78"/><polygon class="cls-11" points="426.62 170.78 422.98 172.46 422.98 336.17 426.62 334.49 426.62 170.78"/><polygon class="cls-14" points="422.98 336.17 422.98 318.2 204.67 217.49 204.67 235.43 422.98 336.17"/><g class="cls-15"><polygon class="cls-16" points="204.67 71.72 204.67 217.49 422.98 318.2 422.98 172.46 204.67 71.72"/><path class="cls-17" d="M204.67,200.24l4.56-11.14L212,202.52l4.69-13.17,2,11.47,2.19-1.32,4.38-8.87L228.1,180l1.14,5.53,9-8.52,2.9-4.23,4.3-6.41,4.54,2.09,2.87,11.08,2.89,0,6.79,6.71,2.62,6v4.82l2.52,8.3,2.66,7.32,2.12,5.84,2.56,4.93,2.82-3.75,1.12,4.09L280,207.5l1.53,1.87,3.78-4.24,1,.48,1.92-4.09,1.58,5.71,2.63-10.76,4.16,1.92,3.29-11.7,3.06-2.15,5.7-5.77,2,7.31,1.18,8.65,2.54-8.51,1.75,4.38,2,5.73,2.58,4.76,2.46,6s1.55,3.08,3.18-.67,1.86,5.58,1.86,5.58l2.41,2.1,3.33-4.75.83,6.67,5-1.25,3.72.47,2.63-12.29,3.69-2.2,3.83-.05,2.39-4.86,6.29.39,2.56-5.8,3.16,1.68L372,196l2.72-3.11,5,8.8,6.13,4.25,4.16-2.88s3.24-2.93,4.29-2.95,6-2.87,6-2.87l8.84.48,4.51-2,2.82-2.08,6.53-8.24V318.2L204.67,217.49Z"/><path class="cls-18" d="M204.67,200.24l4.51-11.16.06-.16,0,.17,2.85,13.41h-.21l4.63-13.19.22-.61.11.63,2,11.46-.33-.15,2.18-1.33-.08.09c0,.05,4.42-9,4.33-8.83.1-.44,3.14-11.73,3.13-11.77.1.42,1.25,6,1.38,6.66l-.46-.15s9.1-8.7,8.91-8.48c2.47-3.6,4.9-7.24,7.33-10.87l4.93,2.26,0,.15,2.88,11.08-.34-.26,2.89,0h.15l.1.1,6.8,6.69.05.05,0,.07,2.63,6,0,.07v4.9l0-.11c.55,1.83,1.95,6.37,2.48,8.12s4.14,11.4,4.85,13.31c-.15-.22,2.59,4.91,2.54,4.87l-.71-.06,2.82-3.75.52-.69c.14.61,1.19,4.25,1.36,4.92l-.85.09,1.07-16.29.08-1.14.73.88,1.53,1.87-.69,0,3.77-4.24.23-.26,1.35.63-.62.22c.41-.91,2.1-4.44,2.47-5.25.21.74,1.68,6.06,1.93,6.94h-.94L292,196.36l.15-.59.55.25,4.16,1.93-.68.31,3.3-11.7,0-.16.14-.1,3.07-2.15-.06.06,5.7-5.76.56-.57.21.77s2,7.32,2,7.34,1.16,8.68,1.17,8.69l-.85-.07L314,186.1l.35-1.16c.73,1.91,1.74,4.23,2.41,6.15,0,0,1.84,5.34,1.72,5,0,0,2.57,4.76,2.58,4.78s2.45,6,2.46,6a2.17,2.17,0,0,0,.85.9c1.17.26,1.46-1.73,2.14-2.43,2.06-1.63,1.94,5.52,2.06,6.58l-.13-.26,2.41,2.1-.54.06c.35-.49,3.62-5.15,3.87-5.49,0,.37.86,7,.93,7.58l-.42-.29,5-1.24.07,0h.06l3.72.47-.37.26,2.65-12.29,0-.13.12-.07,3.69-2.2.07,0h.09l3.83,0-.27.17,2.4-4.86.09-.17h.19l6.29.4-.28.17,2.56-5.8.12-.28.27.14,3.16,1.7h0l0,0,3.91,4h-.39l2.73-3.11.24-.27.18.32,4.91,8.81-.07-.07,6.12,4.27h-.22l4.17-2.86c1.43-1.21,3-2.79,5-3.12a53,53,0,0,0,5.39-2.68l8.84.52c-.14,0,4.48-2,4.48-2l2.81-2.06s6.56-8.22,6.56-8.21l-6.5,8.28-2.82,2.09s-4.5,2-4.54,2l-8.85-.44c-1.7.92-3.9,2.39-6,2.91-1.62.5-2.89,1.88-4.18,2.93l-4.15,2.9-.11.07-.11-.07-6.15-4.23,0,0,0,0-5-8.78.42,0-2.72,3.11-.19.21-.2-.2-3.92-3.93.07.05-3.17-1.68.38-.13-2.55,5.81-.07.18h-.2l-6.29-.38.28-.17-2.39,4.86-.08.17h-.18l-3.84.06L350,201l-3.69,2.2.14-.2-2.61,12.3-.06.3-.3,0-3.73-.46h.13l-5,1.26-.38.09,0-.39-.84-6.66.64.16-3.32,4.75-.24.33-.3-.26-2.41-2.1-.12-.1c-.13-2-.07-4.46-.83-6.28.1,0,.1,0,0,0-.65,1-1.31,3.21-3,2.61a2.73,2.73,0,0,1-1.29-1.31l-2.47-6c.12.2-2.6-4.76-2.56-4.72l0-.06c-1-2.94-2.51-7.26-3.73-10.09l.79,0-2.53,8.52-.57,1.92-.27-2c0,.09-1.22-8.89-1.18-8.59l-2-7.31.77.2-5.71,5.8,0,0-3.06,2.16.18-.26-3.26,11.71-.16.55-4.69-2.15.69-.34-2.64,10.75-.44,1.81-.5-1.79-1.56-5.71.88.07-1.93,4.09-.2.42c-.4-.17-1.08-.51-1.46-.67l.54-.12-3.78,4.24-.36.4c-.29-.31-1.56-2-1.87-2.29l.81-.26-1.12,16.29-.17,2.55-1.79-6.56.75.14-2.83,3.75-.4.53-.3-.59-2.55-4.93,0,0v0c-.73-2-4.19-11.58-4.82-13.34s-1.95-6.4-2.47-8.26v-4.82l0,.14-2.62-6c.4.5-6.76-6.69-6.7-6.6l.25.1-2.89,0h-.27l-.06-.26-2.85-11.08.17.21-4.53-2.1.4-.11c-2.41,3.56-4.8,7.15-7.26,10.68l-9,8.5-.37.35-.1-.5L227.83,180l.53,0s-2.85,10.65-2.88,10.7l-4.43,8.91-.06,0L218.8,201l-.28.17-.05-.32-1.92-11.47.32,0-4.75,13.15-.13.37-.08-.38-2.73-13.44h.1l-4.61,11.12Z"/><line class="cls-19" x1="409.33" y1="162.17" x2="409.33" y2="315.91"/><line class="cls-19" x1="395.69" y1="155.87" x2="395.69" y2="309.61"/><line class="cls-19" x1="382.04" y1="149.57" x2="382.04" y2="303.31"/><line class="cls-19" x1="368.4" y1="143.28" x2="368.4" y2="297.02"/><line class="cls-19" x1="354.75" y1="136.98" x2="354.75" y2="290.72"/><line class="cls-19" x1="341.11" y1="130.68" x2="341.11" y2="284.42"/><line class="cls-19" x1="327.47" y1="124.39" x2="327.47" y2="278.13"/><line class="cls-19" x1="313.82" y1="118.09" x2="313.82" y2="271.83"/><line class="cls-19" x1="300.18" y1="111.79" x2="300.18" y2="265.53"/><line class="cls-19" x1="286.53" y1="105.5" x2="286.53" y2="259.24"/><line class="cls-19" x1="272.89" y1="99.2" x2="272.89" y2="252.94"/><line class="cls-19" x1="259.24" y1="92.9" x2="259.24" y2="246.65"/><line class="cls-19" x1="245.6" y1="86.61" x2="245.6" y2="240.35"/><line class="cls-19" x1="231.96" y1="80.31" x2="231.96" y2="234.05"/><line class="cls-19" x1="218.31" y1="74.02" x2="218.31" y2="227.76"/></g></g><g id="Keyboard"><polygon class="cls-14" points="300.18 430.63 300.18 428.04 95.51 333.58 95.51 336.18 300.18 430.63"/><polygon class="cls-11" points="300.18 430.63 368.4 399.15 368.4 392.56 300.18 428.04 300.18 430.63"/><polygon class="cls-12" points="95.51 333.58 163.73 298.1 368.4 392.56 300.18 428.04 95.51 333.58"/><g class="cls-20"><path class="cls-21" d="M154.18,306.23c-.49.26-.48.66,0,.89l10.12,4.66a2.3,2.3,0,0,0,1.8,0l8.53-4.47c.49-.26.48-.65,0-.88l-10.12-4.66a2.31,2.31,0,0,0-1.79,0Z"/><path class="cls-21" d="M188.09,313.45c.48-.26.47-.66,0-.89L178.15,308a2.34,2.34,0,0,0-1.8,0l-8.54,4.48c-.48.25-.47.65,0,.88l9.92,4.57a2.27,2.27,0,0,0,1.79-.05Z"/><path class="cls-21" d="M181.25,318.71c-.49.25-.48.65,0,.88l9.92,4.57a2.3,2.3,0,0,0,1.8-.05l8.53-4.48c.49-.25.48-.65,0-.88l-9.92-4.57a2.27,2.27,0,0,0-1.79.05Z"/><path class="cls-21" d="M215,325.82c.49-.25.48-.65,0-.88L205,320.37a2.3,2.3,0,0,0-1.8.05l-8.53,4.47c-.49.26-.48.66,0,.89l9.93,4.57a2.27,2.27,0,0,0,1.79-.05Z"/><path class="cls-21" d="M228.4,332c.48-.26.47-.65,0-.88l-9.92-4.57a2.27,2.27,0,0,0-1.79.05l-8.54,4.47c-.49.26-.48.66,0,.89l9.92,4.56a2.34,2.34,0,0,0,1.8,0Z"/><path class="cls-21" d="M221.56,337.27c-.49.25-.48.65,0,.88l9.92,4.57a2.32,2.32,0,0,0,1.79,0l8.54-4.48c.49-.25.48-.65,0-.88l-9.92-4.57a2.34,2.34,0,0,0-1.8,0Z"/><path class="cls-21" d="M255.27,344.39c.48-.26.47-.65,0-.88l-9.92-4.57a2.32,2.32,0,0,0-1.79,0L235,343.46c-.48.26-.47.65,0,.88l9.91,4.57a2.3,2.3,0,0,0,1.8-.05Z"/><path class="cls-21" d="M248.43,349.65c-.49.25-.48.65,0,.88l9.92,4.57a2.27,2.27,0,0,0,1.79-.05l8.54-4.47c.49-.26.48-.66,0-.89l-9.93-4.56a2.32,2.32,0,0,0-1.79,0Z"/><path class="cls-21" d="M261.86,355.84c-.49.25-.48.65,0,.88l9.93,4.57a2.32,2.32,0,0,0,1.79-.05l8.53-4.47c.49-.26.48-.66,0-.89l-9.92-4.57a2.27,2.27,0,0,0-1.79.05Z"/><path class="cls-21" d="M275.3,362c-.48.25-.47.65,0,.88l9.92,4.57a2.27,2.27,0,0,0,1.79-.05l8.53-4.48c.49-.25.48-.65,0-.88l-9.92-4.57a2.3,2.3,0,0,0-1.8.05Z"/><path class="cls-21" d="M288.74,368.22c-.49.25-.48.65,0,.88l9.92,4.57a2.34,2.34,0,0,0,1.8-.05l8.53-4.48c.48-.25.47-.65,0-.88l-9.92-4.57a2.27,2.27,0,0,0-1.79.05Z"/><path class="cls-21" d="M302.18,374.4c-.49.26-.48.65,0,.89l9.92,4.56a2.27,2.27,0,0,0,1.79,0l8.53-4.48c.49-.25.48-.65,0-.88l-9.92-4.57a2.3,2.3,0,0,0-1.8.05Z"/><path class="cls-21" d="M335.87,381.52c.49-.26.48-.65,0-.88l-9.92-4.57a2.32,2.32,0,0,0-1.79,0l-8.53,4.48c-.49.26-.48.65,0,.88l9.92,4.57a2.34,2.34,0,0,0,1.8,0Z"/><path class="cls-21" d="M360.4,393c.49-.26.48-.65,0-.88l-21-9.69a2.32,2.32,0,0,0-1.79.05L329,387c-.49.25-.48.65,0,.88l21,9.69a2.32,2.32,0,0,0,1.79-.05Z"/><path class="cls-21" d="M151.77,308.39a2.31,2.31,0,0,0-1.79,0l-8.55,4.48c-.48.25-.47.65,0,.88l13.33,6.14a2.32,2.32,0,0,0,1.79,0l8.53-4.48c.49-.26.48-.66,0-.89Z"/><path class="cls-21" d="M178.67,321.65c.49-.25.48-.65,0-.88l-9.92-4.57a2.27,2.27,0,0,0-1.79.05l-8.53,4.48c-.49.25-.48.65,0,.88l9.92,4.57a2.27,2.27,0,0,0,1.79-.05Z"/><path class="cls-21" d="M171.84,326.92c-.49.25-.48.65,0,.88l9.92,4.57a2.3,2.3,0,0,0,1.8-.05l8.53-4.48c.48-.25.47-.65,0-.88l-9.92-4.57a2.27,2.27,0,0,0-1.79.05Z"/><path class="cls-21" d="M205.54,334c.49-.26.48-.65,0-.88l-9.92-4.57a2.32,2.32,0,0,0-1.79,0l-8.53,4.48c-.49.26-.48.66,0,.89l9.92,4.56a2.31,2.31,0,0,0,1.79,0Z"/><path class="cls-21" d="M219,340.22c.48-.26.47-.65,0-.88L209,334.77a2.34,2.34,0,0,0-1.8,0l-8.53,4.48c-.49.26-.48.65,0,.88l9.93,4.57a2.32,2.32,0,0,0,1.79,0Z"/><path class="cls-21" d="M232.41,346.41c.49-.26.48-.66,0-.89L222.47,341a2.32,2.32,0,0,0-1.79.05l-8.53,4.48c-.49.25-.48.65,0,.88l9.92,4.57a2.31,2.31,0,0,0,1.79,0Z"/><path class="cls-21" d="M225.58,351.67c-.49.25-.47.65,0,.88l9.92,4.57a2.3,2.3,0,0,0,1.8-.05l8.53-4.47c.48-.26.47-.66,0-.89l-9.91-4.57a2.3,2.3,0,0,0-1.8.05Z"/><path class="cls-21" d="M239,357.86c-.49.25-.48.65,0,.88l9.92,4.57a2.27,2.27,0,0,0,1.79-.05l8.54-4.48c.48-.25.47-.65,0-.88l-9.91-4.56a2.34,2.34,0,0,0-1.8,0Z"/><path class="cls-21" d="M252.45,364.05c-.48.25-.47.65,0,.88l9.92,4.57a2.27,2.27,0,0,0,1.79-.05l8.53-4.48c.49-.25.48-.65,0-.88l-9.92-4.57a2.27,2.27,0,0,0-1.79.05Z"/><path class="cls-21" d="M265.89,370.23c-.49.26-.48.65,0,.89l9.92,4.56a2.3,2.3,0,0,0,1.8,0l8.52-4.48c.49-.26.48-.65,0-.88l-9.91-4.57a2.34,2.34,0,0,0-1.8,0Z"/><path class="cls-21" d="M279.32,376.42c-.48.26-.47.66,0,.89l9.91,4.56a2.34,2.34,0,0,0,1.8,0l8.53-4.48c.49-.26.48-.65,0-.88l-9.91-4.57a2.3,2.3,0,0,0-1.8.05Z"/><path class="cls-21" d="M292.76,382.61c-.49.26-.48.65,0,.88l9.92,4.57a2.31,2.31,0,0,0,1.79,0l8.53-4.48c.49-.26.48-.65,0-.88l-9.91-4.57a2.27,2.27,0,0,0-1.79.05Z"/><path class="cls-21" d="M306.2,388.8c-.49.25-.48.65,0,.88l9.91,4.57a2.3,2.3,0,0,0,1.8-.05l8.54-4.47c.49-.26.47-.65,0-.88l-9.92-4.57a2.34,2.34,0,0,0-1.8,0Z"/><path class="cls-21" d="M128.28,319.79c-.48.26-.47.66,0,.89l16,7.37a2.32,2.32,0,0,0,1.79,0l8.54-4.48c.49-.25.48-.65,0-.88l-16-7.38a2.32,2.32,0,0,0-1.79.05Z"/><path class="cls-21" d="M168.34,329.84c.49-.26.48-.65,0-.88l-9.91-4.57a2.34,2.34,0,0,0-1.8,0l-8.54,4.48c-.48.26-.47.65,0,.88l9.93,4.57a2.32,2.32,0,0,0,1.79,0Z"/><path class="cls-21" d="M181.78,336c.49-.26.48-.65,0-.88l-9.92-4.57a2.34,2.34,0,0,0-1.8,0l-8.53,4.48c-.49.26-.48.65,0,.88l9.92,4.57a2.27,2.27,0,0,0,1.79-.05Z"/><path class="cls-21" d="M195.22,342.22c.48-.26.47-.66,0-.89l-9.91-4.57a2.34,2.34,0,0,0-1.8.05l-8.54,4.48c-.48.25-.47.65,0,.88l9.91,4.57a2.3,2.3,0,0,0,1.8-.05Z"/><path class="cls-21" d="M208.65,348.4c.49-.25.48-.65,0-.88L198.71,343a2.3,2.3,0,0,0-1.8.05l-8.53,4.48c-.49.25-.48.65,0,.88l9.92,4.57a2.27,2.27,0,0,0,1.79-.05Z"/><path class="cls-21" d="M222.09,354.59c.48-.25.47-.65,0-.88l-9.92-4.57a2.27,2.27,0,0,0-1.79.05l-8.53,4.47c-.49.26-.48.66,0,.89l9.91,4.57a2.3,2.3,0,0,0,1.8-.05Z"/><path class="cls-21" d="M235.52,360.78c.49-.25.48-.65,0-.88l-9.92-4.57a2.27,2.27,0,0,0-1.79.05l-8.54,4.47c-.49.26-.48.66,0,.89l9.92,4.56a2.34,2.34,0,0,0,1.8,0Z"/><path class="cls-21" d="M249,367c.49-.26.48-.65,0-.88L239,361.52a2.27,2.27,0,0,0-1.79.05L228.69,366c-.49.25-.48.65,0,.88l9.92,4.58a2.3,2.3,0,0,0,1.8-.05Z"/><path class="cls-21" d="M262.39,373.16c.49-.26.48-.65,0-.88l-9.92-4.57a2.31,2.31,0,0,0-1.79,0l-8.53,4.48c-.49.26-.48.66,0,.89l9.91,4.56a2.31,2.31,0,0,0,1.79,0Z"/><path class="cls-21" d="M275.83,379.35c.48-.26.47-.66,0-.89l-9.93-4.56a2.32,2.32,0,0,0-1.79,0l-8.53,4.48c-.49.25-.48.65,0,.88l9.92,4.57a2.27,2.27,0,0,0,1.79-.05Z"/><path class="cls-21" d="M289.26,385.54c.49-.26.48-.66,0-.89l-9.92-4.57a2.27,2.27,0,0,0-1.79.05L269,384.61c-.49.25-.48.65,0,.88l9.93,4.57a2.31,2.31,0,0,0,1.79,0Z"/><path class="cls-21" d="M302.7,391.73c.48-.26.47-.66,0-.89l-9.92-4.57a2.27,2.27,0,0,0-1.79.05l-8.53,4.48c-.48.25-.47.65,0,.88l9.91,4.57a2.3,2.3,0,0,0,1.8-.05Z"/><path class="cls-21" d="M316.13,397.91c.49-.25.48-.65,0-.88l-9.92-4.57a2.27,2.27,0,0,0-1.79.05L295.87,397c-.49.25-.48.65,0,.88l9.92,4.57a2.27,2.27,0,0,0,1.79-.05Z"/><path class="cls-21" d="M320.06,395c-.48.26-.63.59-.33.73s1.8,1.32,1.31,1.56l-11.52,6c-.49.26-.48.65,0,.88L324.65,411a2.34,2.34,0,0,0,1.8,0l21.64-11.18c.49-.26.48-.65,0-.89l-17.9-8.35a2.25,2.25,0,0,0-1.78,0Z"/><path class="cls-21" d="M147.45,332.56c.48-.26.47-.66,0-.89l-21.34-9.83a2.27,2.27,0,0,0-1.79.05l-8.55,4.47c-.48.26-.47.65,0,.88l21.35,9.84a2.27,2.27,0,0,0,1.79-.05Z"/><path class="cls-21" d="M288.91,406.12c-.49.26-.48.66,0,.89l22.95,10.57a2.27,2.27,0,0,0,1.79-.05l8.54-4.48c.49-.25.48-.65,0-.88l-23-10.57a2.32,2.32,0,0,0-1.79,0Z"/><path class="cls-21" d="M160.89,338.75c.48-.26.47-.65,0-.88L151,333.3a2.27,2.27,0,0,0-1.79.05l-8.54,4.47c-.48.26-.47.65,0,.88l9.92,4.57a2.32,2.32,0,0,0,1.79,0Z"/><path class="cls-21" d="M154.06,344c-.49.25-.48.65,0,.88l9.92,4.57a2.31,2.31,0,0,0,1.79,0l8.54-4.48c.48-.26.47-.66,0-.89l-9.91-4.56a2.3,2.3,0,0,0-1.8.05Z"/><path class="cls-21" d="M187.76,351.13c.49-.26.47-.66,0-.89l-9.92-4.56a2.32,2.32,0,0,0-1.79,0l-8.54,4.48c-.48.26-.47.65,0,.88l9.92,4.57a2.27,2.27,0,0,0,1.79,0Z"/><path class="cls-21" d="M201.2,357.32c.49-.26.48-.66,0-.89l-9.92-4.56a2.31,2.31,0,0,0-1.79,0l-8.54,4.48c-.49.25-.48.65,0,.88l9.92,4.57a2.3,2.3,0,0,0,1.8,0Z"/><path class="cls-21" d="M214.63,363.51c.49-.26.48-.66,0-.89l-9.91-4.57a2.3,2.3,0,0,0-1.8.05l-8.53,4.48c-.49.25-.48.65,0,.88l9.92,4.57a2.27,2.27,0,0,0,1.79,0Z"/><path class="cls-21" d="M228.06,369.69c.49-.25.48-.65,0-.88l-9.91-4.57a2.3,2.3,0,0,0-1.8.05l-8.53,4.47c-.49.26-.47.65,0,.88l9.92,4.57a2.34,2.34,0,0,0,1.8,0Z"/><path class="cls-21" d="M241.51,375.88c.49-.25.48-.65,0-.88l-9.92-4.57a2.3,2.3,0,0,0-1.8.05L221.24,375c-.49.26-.48.66,0,.89l9.92,4.56a2.32,2.32,0,0,0,1.79,0Z"/><path class="cls-21" d="M254.94,382.07c.49-.25.48-.65,0-.88L245,376.62a2.27,2.27,0,0,0-1.79.05l-8.54,4.47c-.49.26-.48.65,0,.88l9.92,4.57a2.34,2.34,0,0,0,1.8,0Z"/><path class="cls-21" d="M268.38,388.26c.48-.26.47-.65,0-.88l-9.91-4.57a2.34,2.34,0,0,0-1.8,0l-8.54,4.48c-.48.25-.47.65,0,.88l9.92,4.57a2.32,2.32,0,0,0,1.79,0Z"/><path class="cls-21" d="M281.81,394.45c.49-.26.48-.65,0-.88L271.87,389a2.32,2.32,0,0,0-1.79,0l-8.54,4.48c-.49.25-.48.65,0,.88l9.92,4.57a2.3,2.3,0,0,0,1.8-.05Z"/><path class="cls-21" d="M295.25,400.64c.48-.26.47-.66,0-.89l-9.92-4.57a2.32,2.32,0,0,0-1.79.05L275,399.7c-.49.26-.48.66,0,.89l9.91,4.57a2.3,2.3,0,0,0,1.8-.05Z"/><path class="cls-21" d="M154.75,356.92c-.49.25-.48.65,0,.88l95.29,43.89a2.31,2.31,0,0,0,1.79,0l8.53-4.48c.49-.26.48-.66,0-.89l-95.28-43.89a2.3,2.3,0,0,0-1.8.05Z"/><path class="cls-21" d="M103,333.06c-.49.26-.48.65,0,.88l15.87,7.31a2.32,2.32,0,0,0,1.79,0l8.54-4.48c.48-.26.47-.65,0-.88l-15.85-7.31a2.3,2.3,0,0,0-1.8,0Z"/><path class="cls-21" d="M122.68,342.15c-.49.25-.48.65,0,.88l11.85,5.46a2.27,2.27,0,0,0,1.79-.05l8.54-4.47c.49-.26.48-.66,0-.89L133,337.63a2.34,2.34,0,0,0-1.8,0Z"/><path class="cls-21" d="M138.05,349.23c-.49.25-.48.65,0,.88L150.82,356a2.27,2.27,0,0,0,1.79-.05l8.54-4.47c.48-.26.47-.66,0-.89l-12.74-5.87a2.32,2.32,0,0,0-1.79.05Z"/><path class="cls-21" d="M253.49,402.4c-.49.25-.48.65,0,.88l16.31,7.51a2.34,2.34,0,0,0,1.8,0l8.54-4.48c.48-.25.47-.65,0-.88l-16.32-7.52a2.32,2.32,0,0,0-1.79.05Z"/><path class="cls-21" d="M273.63,411.68c-.48.26-.47.65,0,.88l11,5.07a2.31,2.31,0,0,0,1.79,0l8.54-4.48c.48-.25.47-.65,0-.88l-11-5.07a2.34,2.34,0,0,0-1.8,0Z"/><path class="cls-21" d="M288.6,418.57c-.49.26-.48.66,0,.89l10.48,4.82a2.27,2.27,0,0,0,1.79,0l8.54-4.47c.49-.26.48-.65,0-.88l-10.48-4.83a2.34,2.34,0,0,0-1.8,0Z"/></g></g><g id="Notepad"><polygon class="cls-22" points="81.87 245.13 150.09 276.61 68.22 314.39 0 282.91 81.87 245.13"/><polygon class="cls-23" points="150.09 276.61 150.09 282.2 68.22 319.98 68.22 314.39 150.09 276.61"/><polygon class="cls-24" points="68.22 314.39 68.22 319.98 0 288.5 0 282.91 68.22 314.39"/><ellipse class="cls-25" cx="85.74" cy="251.82" rx="2.12" ry="1.1" transform="translate(-102.44 63.79) rotate(-26.22)"/><path class="cls-26" d="M91.72,242.73A6.95,6.95,0,0,0,85.17,252h0a.53.53,0,0,0,.7.2c.31-.1.5-.37.42-.59h0A5.77,5.77,0,1,1,97,252.1l1.08.5a7,7,0,0,0-6.32-9.87Z"/><ellipse class="cls-27" cx="91.82" cy="254.62" rx="2.12" ry="1.1" transform="translate(-103.05 66.77) rotate(-26.22)"/><path class="cls-28" d="M97.81,245.54a7,7,0,0,0-7,7,6.74,6.74,0,0,0,.4,2.32h0a.52.52,0,0,0,.69.2c.31-.1.51-.37.43-.59h0a5.76,5.76,0,1,1,11.19-1.94,5.76,5.76,0,0,1-.52,2.42l1.07.5a6.83,6.83,0,0,0,.64-2.92A7,7,0,0,0,97.81,245.54Z"/><ellipse class="cls-29" cx="97.91" cy="257.43" rx="2.12" ry="1.1" transform="translate(-103.67 69.75) rotate(-26.22)"/><path class="cls-30" d="M103.9,248.35a6.95,6.95,0,0,0-6.56,9.27h0a.54.54,0,0,0,.69.2c.31-.11.5-.37.43-.59h0a5.77,5.77,0,1,1,11.2-1.93,5.69,5.69,0,0,1-.53,2.41l1.08.5a6.95,6.95,0,0,0-6.31-9.86Z"/><ellipse class="cls-31" cx="103.99" cy="260.24" rx="2.12" ry="1.1" transform="translate(-104.28 72.73) rotate(-26.22)"/><path class="cls-32" d="M110,251.16a7,7,0,0,0-7,7,6.78,6.78,0,0,0,.4,2.32h0a.55.55,0,0,0,.7.2c.31-.11.5-.37.42-.59h0a5.77,5.77,0,1,1,10.67.48l1.08.5a6.95,6.95,0,0,0-6.32-9.86Z"/><ellipse class="cls-33" cx="110.08" cy="263.05" rx="2.12" ry="1.1" transform="translate(-104.9 75.7) rotate(-26.22)"/><path class="cls-34" d="M116.07,254a7,7,0,0,0-6.95,7,7.06,7.06,0,0,0,.39,2.32h0a.54.54,0,0,0,.69.2c.31-.11.5-.37.43-.59h0a5.76,5.76,0,1,1,10.66.48l1.08.5a6.79,6.79,0,0,0,.64-2.91A7,7,0,0,0,116.07,254Z"/><ellipse class="cls-35" cx="116.16" cy="265.86" rx="2.12" ry="1.1" transform="translate(-105.51 78.68) rotate(-26.22)"/><path class="cls-36" d="M122.15,256.77a7,7,0,0,0-7,7,7.07,7.07,0,0,0,.4,2.32h0c.07.21.38.3.69.2s.5-.37.43-.59h0a5.77,5.77,0,1,1,10.67.48l1.08.5a7,7,0,0,0-6.32-9.87Z"/><ellipse class="cls-37" cx="122.25" cy="268.67" rx="2.12" ry="1.1" transform="translate(-106.13 81.66) rotate(-26.22)"/><path class="cls-38" d="M128.24,259.58a7,7,0,0,0-7,6.95,6.84,6.84,0,0,0,.4,2.33h0a.53.53,0,0,0,.69.19c.31-.1.51-.36.43-.58h0a5.76,5.76,0,1,1,10.67.48l1.07.5a6.83,6.83,0,0,0,.64-2.92A7,7,0,0,0,128.24,259.58Z"/><ellipse class="cls-39" cx="128.34" cy="271.48" rx="2.12" ry="1.1" transform="translate(-106.74 84.64) rotate(-26.22)"/><path class="cls-40" d="M134.33,262.39a6.95,6.95,0,0,0-6.56,9.27h0c.08.22.38.31.69.2s.5-.37.43-.58h0a5.54,5.54,0,0,1-.34-1.94,5.77,5.77,0,1,1,11,2.42l1.08.5a7,7,0,0,0-6.31-9.87Z"/><ellipse class="cls-41" cx="134.42" cy="274.29" rx="2.12" ry="1.1" transform="translate(-107.36 87.62) rotate(-26.22)"/><path class="cls-42" d="M140.41,265.2a6.95,6.95,0,0,0-6.55,9.27h0a.53.53,0,0,0,.7.2c.31-.1.5-.37.42-.59h0a5.77,5.77,0,1,1,10.67.48l1.08.5a7,7,0,0,0-6.32-9.87Z"/></g><g id="Clock"><path class="cls-43" d="M490,367.09v13.54l-3-1.39c-1.8-3.75-6.34-7.93-11.67-10.39s-9.88-2.48-11.66-.38l-3-1.38V353.56Z"/><polygon class="cls-44" points="490.04 367.09 504.7 360.32 504.7 373.86 490.04 380.62 490.04 367.09"/><ellipse class="cls-45" cx="475.38" cy="339.71" rx="21.53" ry="34.02" transform="translate(-108.13 369.82) rotate(-38.5)"/><ellipse class="cls-18" cx="475.38" cy="339.71" rx="18.63" ry="29.44" transform="translate(-108.13 369.82) rotate(-38.5)"/><polyline class="cls-46" points="488.11 345.58 475.38 339.71 475.38 322.32"/><path class="cls-43" d="M488.33,306.28c-6.7-3.09-12.81-3.49-17.53-1.65h0l0,0c-.62.24-13.77,6.72-13.77,6.72a15.12,15.12,0,0,1,3.58-1.14c4.25-.84,9.35-.11,14.82,2.42,14.94,6.89,27.07,24.59,27.07,39.54,0,6.06-2,10.75-5.37,13.7a12.48,12.48,0,0,1-2.05,1.49l12.39-6.05.08,0c4.88-2.65,7.9-8,7.9-15.47C515.4,330.87,503.27,313.16,488.33,306.28Z"/></g><path class="cls-1" d="M508.08,199.12V184l-40.94-18.89-6.44,3v9.2L423,159.84l-27.29,12.62-7.19,53.06a8.45,8.45,0,0,0,4.84,8.82l2.35,1.08V285.8l150.09,69.26,27.29-12.62V229.1Zm-36.93-21.24,25.48,11.76v4.19l-25.48-11.76Z"/></g></g></svg>